<mxfile host="app.diagrams.net">
  <diagram id="C5RBs43oDa-KdzZeNtuy" name="Page-1">
    <mxGraphModel dx="3685" dy="1475" grid="1" gridSize="10" guides="1" tooltips="1" connect="1" arrows="1" fold="1" page="1" pageScale="1" pageWidth="827" pageHeight="1169" math="0" shadow="0">
      <root>
        <mxCell id="WIyWlLk6GJQsqaUBKTNV-0" />
        <mxCell id="WIyWlLk6GJQsqaUBKTNV-1" parent="WIyWlLk6GJQsqaUBKTNV-0" />
        <mxCell id="xZGPCKD-ZMuEWJ9LVh27-139" value="" style="rounded=1;whiteSpace=wrap;html=1;fontSize=12;glass=0;strokeWidth=1;shadow=0;" parent="WIyWlLk6GJQsqaUBKTNV-1" vertex="1">
          <mxGeometry x="114" y="1250" width="602" height="100" as="geometry" />
        </mxCell>
        <mxCell id="xZGPCKD-ZMuEWJ9LVh27-135" value="" style="rounded=1;whiteSpace=wrap;html=1;fontSize=12;glass=0;strokeWidth=1;shadow=0;" parent="WIyWlLk6GJQsqaUBKTNV-1" vertex="1">
          <mxGeometry x="114" y="990" width="602" height="100" as="geometry" />
        </mxCell>
        <mxCell id="WIyWlLk6GJQsqaUBKTNV-2" value="" style="rounded=0;html=1;jettySize=auto;orthogonalLoop=1;fontSize=11;endArrow=classic;endFill=1;endSize=8;strokeWidth=1;shadow=0;labelBackgroundColor=none;edgeStyle=orthogonalEdgeStyle;" parent="WIyWlLk6GJQsqaUBKTNV-1" source="WIyWlLk6GJQsqaUBKTNV-3" target="WIyWlLk6GJQsqaUBKTNV-6" edge="1">
          <mxGeometry relative="1" as="geometry" />
        </mxCell>
        <mxCell id="xZGPCKD-ZMuEWJ9LVh27-2" style="edgeStyle=orthogonalEdgeStyle;rounded=0;orthogonalLoop=1;jettySize=auto;html=1;" parent="WIyWlLk6GJQsqaUBKTNV-1" source="WIyWlLk6GJQsqaUBKTNV-3" target="xZGPCKD-ZMuEWJ9LVh27-1" edge="1">
          <mxGeometry relative="1" as="geometry" />
        </mxCell>
        <mxCell id="xZGPCKD-ZMuEWJ9LVh27-3" style="edgeStyle=orthogonalEdgeStyle;rounded=0;orthogonalLoop=1;jettySize=auto;html=1;" parent="WIyWlLk6GJQsqaUBKTNV-1" source="WIyWlLk6GJQsqaUBKTNV-3" target="xZGPCKD-ZMuEWJ9LVh27-0" edge="1">
          <mxGeometry relative="1" as="geometry">
            <Array as="points">
              <mxPoint x="415" y="70" />
              <mxPoint x="415" y="70" />
            </Array>
          </mxGeometry>
        </mxCell>
        <mxCell id="WIyWlLk6GJQsqaUBKTNV-3" value="CH1_INTRO" style="rounded=1;whiteSpace=wrap;html=1;fontSize=12;glass=0;strokeWidth=1;shadow=0;" parent="WIyWlLk6GJQsqaUBKTNV-1" vertex="1">
          <mxGeometry width="830" height="40" as="geometry" />
        </mxCell>
        <mxCell id="xZGPCKD-ZMuEWJ9LVh27-80" style="edgeStyle=orthogonalEdgeStyle;rounded=0;orthogonalLoop=1;jettySize=auto;html=1;" parent="WIyWlLk6GJQsqaUBKTNV-1" source="WIyWlLk6GJQsqaUBKTNV-6" target="xZGPCKD-ZMuEWJ9LVh27-66" edge="1">
          <mxGeometry relative="1" as="geometry" />
        </mxCell>
        <mxCell id="WIyWlLk6GJQsqaUBKTNV-6" value="&lt;div&gt;Release on schedule and address any vulnerabilities with updates.&lt;/div&gt;&lt;div&gt;&lt;br&gt;&lt;/div&gt;" style="rhombus;whiteSpace=wrap;html=1;shadow=0;fontFamily=Helvetica;fontSize=12;align=center;strokeWidth=1;spacing=6;spacingTop=-4;" parent="WIyWlLk6GJQsqaUBKTNV-1" vertex="1">
          <mxGeometry x="494" y="80" width="100" height="80" as="geometry" />
        </mxCell>
        <mxCell id="xZGPCKD-ZMuEWJ9LVh27-31" style="edgeStyle=orthogonalEdgeStyle;rounded=0;orthogonalLoop=1;jettySize=auto;html=1;entryX=0.5;entryY=0;entryDx=0;entryDy=0;" parent="WIyWlLk6GJQsqaUBKTNV-1" source="WIyWlLk6GJQsqaUBKTNV-10" target="xZGPCKD-ZMuEWJ9LVh27-28" edge="1">
          <mxGeometry relative="1" as="geometry" />
        </mxCell>
        <mxCell id="5BbmML6RepyWTEeYlKqq-66" value="-2" style="edgeLabel;html=1;align=center;verticalAlign=middle;resizable=0;points=[];" vertex="1" connectable="0" parent="xZGPCKD-ZMuEWJ9LVh27-31">
          <mxGeometry x="0.3842" y="1" relative="1" as="geometry">
            <mxPoint as="offset" />
          </mxGeometry>
        </mxCell>
        <mxCell id="WIyWlLk6GJQsqaUBKTNV-10" value="Invest in some vulnerability scanning tools and training for the team." style="rhombus;whiteSpace=wrap;html=1;shadow=0;fontFamily=Helvetica;fontSize=12;align=center;strokeWidth=1;spacing=6;spacingTop=-4;" parent="WIyWlLk6GJQsqaUBKTNV-1" vertex="1">
          <mxGeometry x="364" y="270" width="100" height="80" as="geometry" />
        </mxCell>
        <mxCell id="xZGPCKD-ZMuEWJ9LVh27-21" style="edgeStyle=orthogonalEdgeStyle;rounded=0;orthogonalLoop=1;jettySize=auto;html=1;entryX=0.5;entryY=0;entryDx=0;entryDy=0;" parent="WIyWlLk6GJQsqaUBKTNV-1" source="xZGPCKD-ZMuEWJ9LVh27-0" target="xZGPCKD-ZMuEWJ9LVh27-14" edge="1">
          <mxGeometry relative="1" as="geometry" />
        </mxCell>
        <mxCell id="xZGPCKD-ZMuEWJ9LVh27-0" value="Postpone the launch of the app and work on it internally." style="rhombus;whiteSpace=wrap;html=1;shadow=0;fontFamily=Helvetica;fontSize=12;align=center;strokeWidth=1;spacing=6;spacingTop=-4;" parent="WIyWlLk6GJQsqaUBKTNV-1" vertex="1">
          <mxGeometry x="365" y="80" width="100" height="80" as="geometry" />
        </mxCell>
        <mxCell id="xZGPCKD-ZMuEWJ9LVh27-5" style="edgeStyle=orthogonalEdgeStyle;rounded=0;orthogonalLoop=1;jettySize=auto;html=1;entryX=0.5;entryY=0;entryDx=0;entryDy=0;" parent="WIyWlLk6GJQsqaUBKTNV-1" source="xZGPCKD-ZMuEWJ9LVh27-1" target="xZGPCKD-ZMuEWJ9LVh27-4" edge="1">
          <mxGeometry relative="1" as="geometry" />
        </mxCell>
        <mxCell id="xZGPCKD-ZMuEWJ9LVh27-1" value="Outsource to a third party to help us identify any security issues (the ones related to the app)." style="rhombus;whiteSpace=wrap;html=1;shadow=0;fontFamily=Helvetica;fontSize=12;align=center;strokeWidth=1;spacing=6;spacingTop=-4;" parent="WIyWlLk6GJQsqaUBKTNV-1" vertex="1">
          <mxGeometry x="234" y="80" width="100" height="80" as="geometry" />
        </mxCell>
        <mxCell id="xZGPCKD-ZMuEWJ9LVh27-10" style="edgeStyle=orthogonalEdgeStyle;rounded=0;orthogonalLoop=1;jettySize=auto;html=1;" parent="WIyWlLk6GJQsqaUBKTNV-1" source="xZGPCKD-ZMuEWJ9LVh27-4" target="xZGPCKD-ZMuEWJ9LVh27-7" edge="1">
          <mxGeometry relative="1" as="geometry" />
        </mxCell>
        <mxCell id="xZGPCKD-ZMuEWJ9LVh27-12" style="edgeStyle=orthogonalEdgeStyle;rounded=0;orthogonalLoop=1;jettySize=auto;html=1;" parent="WIyWlLk6GJQsqaUBKTNV-1" source="xZGPCKD-ZMuEWJ9LVh27-4" target="xZGPCKD-ZMuEWJ9LVh27-8" edge="1">
          <mxGeometry relative="1" as="geometry" />
        </mxCell>
        <mxCell id="xZGPCKD-ZMuEWJ9LVh27-13" style="edgeStyle=orthogonalEdgeStyle;rounded=0;orthogonalLoop=1;jettySize=auto;html=1;entryX=0.5;entryY=0;entryDx=0;entryDy=0;" parent="WIyWlLk6GJQsqaUBKTNV-1" source="xZGPCKD-ZMuEWJ9LVh27-4" target="xZGPCKD-ZMuEWJ9LVh27-6" edge="1">
          <mxGeometry relative="1" as="geometry" />
        </mxCell>
        <mxCell id="xZGPCKD-ZMuEWJ9LVh27-4" value="CH1_A0" style="rounded=1;whiteSpace=wrap;html=1;fontSize=12;glass=0;strokeWidth=1;shadow=0;" parent="WIyWlLk6GJQsqaUBKTNV-1" vertex="1">
          <mxGeometry x="-60" y="190" width="120" height="40" as="geometry" />
        </mxCell>
        <mxCell id="xZGPCKD-ZMuEWJ9LVh27-18" style="edgeStyle=orthogonalEdgeStyle;rounded=0;orthogonalLoop=1;jettySize=auto;html=1;entryX=0.5;entryY=0;entryDx=0;entryDy=0;" parent="WIyWlLk6GJQsqaUBKTNV-1" source="xZGPCKD-ZMuEWJ9LVh27-6" target="xZGPCKD-ZMuEWJ9LVh27-17" edge="1">
          <mxGeometry relative="1" as="geometry" />
        </mxCell>
        <mxCell id="5BbmML6RepyWTEeYlKqq-60" value="-1" style="edgeLabel;html=1;align=center;verticalAlign=middle;resizable=0;points=[];" vertex="1" connectable="0" parent="xZGPCKD-ZMuEWJ9LVh27-18">
          <mxGeometry x="-0.1864" relative="1" as="geometry">
            <mxPoint y="21" as="offset" />
          </mxGeometry>
        </mxCell>
        <mxCell id="xZGPCKD-ZMuEWJ9LVh27-6" value="The one that has been working with us, but never on this level." style="rhombus;whiteSpace=wrap;html=1;shadow=0;fontFamily=Helvetica;fontSize=12;align=center;strokeWidth=1;spacing=6;spacingTop=-4;" parent="WIyWlLk6GJQsqaUBKTNV-1" vertex="1">
          <mxGeometry x="-190" y="270" width="100" height="80" as="geometry" />
        </mxCell>
        <mxCell id="xZGPCKD-ZMuEWJ9LVh27-19" style="edgeStyle=orthogonalEdgeStyle;rounded=0;orthogonalLoop=1;jettySize=auto;html=1;entryX=0.5;entryY=0;entryDx=0;entryDy=0;" parent="WIyWlLk6GJQsqaUBKTNV-1" source="xZGPCKD-ZMuEWJ9LVh27-7" target="xZGPCKD-ZMuEWJ9LVh27-16" edge="1">
          <mxGeometry relative="1" as="geometry" />
        </mxCell>
        <mxCell id="5BbmML6RepyWTEeYlKqq-63" value="-3" style="edgeLabel;html=1;align=center;verticalAlign=middle;resizable=0;points=[];" vertex="1" connectable="0" parent="xZGPCKD-ZMuEWJ9LVh27-19">
          <mxGeometry x="0.0041" relative="1" as="geometry">
            <mxPoint y="15" as="offset" />
          </mxGeometry>
        </mxCell>
        <mxCell id="xZGPCKD-ZMuEWJ9LVh27-7" value="TECHSPEC, highly recommended by the market, fully professional team of great&amp;nbsp; programmers, but very expensive." style="rhombus;whiteSpace=wrap;html=1;shadow=0;fontFamily=Helvetica;fontSize=12;align=center;strokeWidth=1;spacing=6;spacingTop=-4;" parent="WIyWlLk6GJQsqaUBKTNV-1" vertex="1">
          <mxGeometry x="-50" y="270" width="100" height="80" as="geometry" />
        </mxCell>
        <mxCell id="xZGPCKD-ZMuEWJ9LVh27-20" style="edgeStyle=orthogonalEdgeStyle;rounded=0;orthogonalLoop=1;jettySize=auto;html=1;entryX=0.5;entryY=0;entryDx=0;entryDy=0;" parent="WIyWlLk6GJQsqaUBKTNV-1" source="xZGPCKD-ZMuEWJ9LVh27-8" target="xZGPCKD-ZMuEWJ9LVh27-15" edge="1">
          <mxGeometry relative="1" as="geometry" />
        </mxCell>
        <mxCell id="5BbmML6RepyWTEeYlKqq-64" value="-2" style="edgeLabel;html=1;align=center;verticalAlign=middle;resizable=0;points=[];" vertex="1" connectable="0" parent="xZGPCKD-ZMuEWJ9LVh27-20">
          <mxGeometry x="-0.0639" relative="1" as="geometry">
            <mxPoint y="17" as="offset" />
          </mxGeometry>
        </mxCell>
        <mxCell id="xZGPCKD-ZMuEWJ9LVh27-8" value="&lt;div&gt;ITFr33X, recommended by one of the IT team members - a group of talented freelancers, who will do it fast and for a reasonable price.&lt;/div&gt;" style="rhombus;whiteSpace=wrap;html=1;shadow=0;fontFamily=Helvetica;fontSize=12;align=center;strokeWidth=1;spacing=6;spacingTop=-4;" parent="WIyWlLk6GJQsqaUBKTNV-1" vertex="1">
          <mxGeometry x="90" y="270" width="100" height="80" as="geometry" />
        </mxCell>
        <mxCell id="xZGPCKD-ZMuEWJ9LVh27-24" style="edgeStyle=orthogonalEdgeStyle;rounded=0;orthogonalLoop=1;jettySize=auto;html=1;entryX=0.5;entryY=0;entryDx=0;entryDy=0;" parent="WIyWlLk6GJQsqaUBKTNV-1" source="xZGPCKD-ZMuEWJ9LVh27-14" target="xZGPCKD-ZMuEWJ9LVh27-22" edge="1">
          <mxGeometry relative="1" as="geometry" />
        </mxCell>
        <mxCell id="xZGPCKD-ZMuEWJ9LVh27-25" style="edgeStyle=orthogonalEdgeStyle;rounded=0;orthogonalLoop=1;jettySize=auto;html=1;" parent="WIyWlLk6GJQsqaUBKTNV-1" source="xZGPCKD-ZMuEWJ9LVh27-14" target="WIyWlLk6GJQsqaUBKTNV-10" edge="1">
          <mxGeometry relative="1" as="geometry" />
        </mxCell>
        <mxCell id="xZGPCKD-ZMuEWJ9LVh27-26" style="edgeStyle=orthogonalEdgeStyle;rounded=0;orthogonalLoop=1;jettySize=auto;html=1;" parent="WIyWlLk6GJQsqaUBKTNV-1" source="xZGPCKD-ZMuEWJ9LVh27-14" target="xZGPCKD-ZMuEWJ9LVh27-23" edge="1">
          <mxGeometry relative="1" as="geometry" />
        </mxCell>
        <mxCell id="xZGPCKD-ZMuEWJ9LVh27-14" value="CH1_B0" style="rounded=1;whiteSpace=wrap;html=1;fontSize=12;glass=0;strokeWidth=1;shadow=0;" parent="WIyWlLk6GJQsqaUBKTNV-1" vertex="1">
          <mxGeometry x="354" y="190" width="120" height="40" as="geometry" />
        </mxCell>
        <mxCell id="xZGPCKD-ZMuEWJ9LVh27-42" style="edgeStyle=orthogonalEdgeStyle;rounded=0;orthogonalLoop=1;jettySize=auto;html=1;" parent="WIyWlLk6GJQsqaUBKTNV-1" source="xZGPCKD-ZMuEWJ9LVh27-15" target="xZGPCKD-ZMuEWJ9LVh27-33" edge="1">
          <mxGeometry relative="1" as="geometry">
            <Array as="points">
              <mxPoint x="140" y="560" />
              <mxPoint x="415" y="560" />
            </Array>
          </mxGeometry>
        </mxCell>
        <mxCell id="xZGPCKD-ZMuEWJ9LVh27-15" value="CH1_A3" style="rounded=1;whiteSpace=wrap;html=1;fontSize=12;glass=0;strokeWidth=1;shadow=0;" parent="WIyWlLk6GJQsqaUBKTNV-1" vertex="1">
          <mxGeometry x="80" y="420" width="120" height="40" as="geometry" />
        </mxCell>
        <mxCell id="xZGPCKD-ZMuEWJ9LVh27-41" style="edgeStyle=orthogonalEdgeStyle;rounded=0;orthogonalLoop=1;jettySize=auto;html=1;" parent="WIyWlLk6GJQsqaUBKTNV-1" source="xZGPCKD-ZMuEWJ9LVh27-16" target="xZGPCKD-ZMuEWJ9LVh27-33" edge="1">
          <mxGeometry relative="1" as="geometry">
            <Array as="points">
              <mxPoint y="560" />
              <mxPoint x="415" y="560" />
            </Array>
          </mxGeometry>
        </mxCell>
        <mxCell id="xZGPCKD-ZMuEWJ9LVh27-16" value="CH1_A2" style="rounded=1;whiteSpace=wrap;html=1;fontSize=12;glass=0;strokeWidth=1;shadow=0;" parent="WIyWlLk6GJQsqaUBKTNV-1" vertex="1">
          <mxGeometry x="-60" y="420" width="120" height="40" as="geometry" />
        </mxCell>
        <mxCell id="xZGPCKD-ZMuEWJ9LVh27-48" style="edgeStyle=orthogonalEdgeStyle;rounded=0;orthogonalLoop=1;jettySize=auto;html=1;entryX=0.5;entryY=0;entryDx=0;entryDy=0;" parent="WIyWlLk6GJQsqaUBKTNV-1" source="xZGPCKD-ZMuEWJ9LVh27-17" target="xZGPCKD-ZMuEWJ9LVh27-33" edge="1">
          <mxGeometry relative="1" as="geometry">
            <Array as="points">
              <mxPoint x="-140" y="560" />
              <mxPoint x="415" y="560" />
            </Array>
          </mxGeometry>
        </mxCell>
        <mxCell id="xZGPCKD-ZMuEWJ9LVh27-17" value="CH1_A1" style="rounded=1;whiteSpace=wrap;html=1;fontSize=12;glass=0;strokeWidth=1;shadow=0;" parent="WIyWlLk6GJQsqaUBKTNV-1" vertex="1">
          <mxGeometry x="-200" y="420" width="120" height="40" as="geometry" />
        </mxCell>
        <mxCell id="xZGPCKD-ZMuEWJ9LVh27-56" style="edgeStyle=orthogonalEdgeStyle;rounded=0;orthogonalLoop=1;jettySize=auto;html=1;" parent="WIyWlLk6GJQsqaUBKTNV-1" source="xZGPCKD-ZMuEWJ9LVh27-22" target="xZGPCKD-ZMuEWJ9LVh27-27" edge="1">
          <mxGeometry relative="1" as="geometry" />
        </mxCell>
        <mxCell id="xZGPCKD-ZMuEWJ9LVh27-22" value="Outsource to a third party to help us identify any security issues." style="rhombus;whiteSpace=wrap;html=1;shadow=0;fontFamily=Helvetica;fontSize=12;align=center;strokeWidth=1;spacing=6;spacingTop=-4;" parent="WIyWlLk6GJQsqaUBKTNV-1" vertex="1">
          <mxGeometry x="234" y="270" width="100" height="80" as="geometry" />
        </mxCell>
        <mxCell id="xZGPCKD-ZMuEWJ9LVh27-32" style="edgeStyle=orthogonalEdgeStyle;rounded=0;orthogonalLoop=1;jettySize=auto;html=1;entryX=0.5;entryY=0;entryDx=0;entryDy=0;" parent="WIyWlLk6GJQsqaUBKTNV-1" source="xZGPCKD-ZMuEWJ9LVh27-23" target="xZGPCKD-ZMuEWJ9LVh27-29" edge="1">
          <mxGeometry relative="1" as="geometry" />
        </mxCell>
        <mxCell id="xZGPCKD-ZMuEWJ9LVh27-23" value="Work on any vulnerabilities after the first release of the app." style="rhombus;whiteSpace=wrap;html=1;shadow=0;fontFamily=Helvetica;fontSize=12;align=center;strokeWidth=1;spacing=6;spacingTop=-4;" parent="WIyWlLk6GJQsqaUBKTNV-1" vertex="1">
          <mxGeometry x="494" y="270" width="100" height="80" as="geometry" />
        </mxCell>
        <mxCell id="xZGPCKD-ZMuEWJ9LVh27-77" style="edgeStyle=orthogonalEdgeStyle;rounded=0;orthogonalLoop=1;jettySize=auto;html=1;" parent="WIyWlLk6GJQsqaUBKTNV-1" source="xZGPCKD-ZMuEWJ9LVh27-27" target="xZGPCKD-ZMuEWJ9LVh27-43" edge="1">
          <mxGeometry relative="1" as="geometry" />
        </mxCell>
        <mxCell id="xZGPCKD-ZMuEWJ9LVh27-27" value="CH1_B1" style="rounded=1;whiteSpace=wrap;html=1;fontSize=12;glass=0;strokeWidth=1;shadow=0;" parent="WIyWlLk6GJQsqaUBKTNV-1" vertex="1">
          <mxGeometry x="224" y="420" width="120" height="40" as="geometry" />
        </mxCell>
        <mxCell id="xZGPCKD-ZMuEWJ9LVh27-78" style="edgeStyle=orthogonalEdgeStyle;rounded=0;orthogonalLoop=1;jettySize=auto;html=1;entryX=0.5;entryY=0;entryDx=0;entryDy=0;" parent="WIyWlLk6GJQsqaUBKTNV-1" source="xZGPCKD-ZMuEWJ9LVh27-28" target="xZGPCKD-ZMuEWJ9LVh27-33" edge="1">
          <mxGeometry relative="1" as="geometry">
            <Array as="points">
              <mxPoint x="415" y="510" />
              <mxPoint x="415" y="510" />
            </Array>
          </mxGeometry>
        </mxCell>
        <mxCell id="xZGPCKD-ZMuEWJ9LVh27-28" value="CH1_B2" style="rounded=1;whiteSpace=wrap;html=1;fontSize=12;glass=0;strokeWidth=1;shadow=0;" parent="WIyWlLk6GJQsqaUBKTNV-1" vertex="1">
          <mxGeometry x="354" y="420" width="120" height="40" as="geometry" />
        </mxCell>
        <mxCell id="xZGPCKD-ZMuEWJ9LVh27-52" style="edgeStyle=orthogonalEdgeStyle;rounded=0;orthogonalLoop=1;jettySize=auto;html=1;entryX=0.5;entryY=0;entryDx=0;entryDy=0;" parent="WIyWlLk6GJQsqaUBKTNV-1" source="xZGPCKD-ZMuEWJ9LVh27-29" target="xZGPCKD-ZMuEWJ9LVh27-33" edge="1">
          <mxGeometry relative="1" as="geometry">
            <Array as="points">
              <mxPoint x="544" y="560" />
              <mxPoint x="415" y="560" />
            </Array>
          </mxGeometry>
        </mxCell>
        <mxCell id="xZGPCKD-ZMuEWJ9LVh27-29" value="CH1_B3" style="rounded=1;whiteSpace=wrap;html=1;fontSize=12;glass=0;strokeWidth=1;shadow=0;" parent="WIyWlLk6GJQsqaUBKTNV-1" vertex="1">
          <mxGeometry x="484" y="420" width="120" height="40" as="geometry" />
        </mxCell>
        <mxCell id="xZGPCKD-ZMuEWJ9LVh27-86" style="edgeStyle=orthogonalEdgeStyle;rounded=0;orthogonalLoop=1;jettySize=auto;html=1;" parent="WIyWlLk6GJQsqaUBKTNV-1" source="xZGPCKD-ZMuEWJ9LVh27-33" target="xZGPCKD-ZMuEWJ9LVh27-83" edge="1">
          <mxGeometry relative="1" as="geometry" />
        </mxCell>
        <mxCell id="xZGPCKD-ZMuEWJ9LVh27-87" style="edgeStyle=orthogonalEdgeStyle;rounded=0;orthogonalLoop=1;jettySize=auto;html=1;" parent="WIyWlLk6GJQsqaUBKTNV-1" source="xZGPCKD-ZMuEWJ9LVh27-33" target="xZGPCKD-ZMuEWJ9LVh27-84" edge="1">
          <mxGeometry relative="1" as="geometry" />
        </mxCell>
        <mxCell id="xZGPCKD-ZMuEWJ9LVh27-88" style="edgeStyle=orthogonalEdgeStyle;rounded=0;orthogonalLoop=1;jettySize=auto;html=1;entryX=0.5;entryY=0;entryDx=0;entryDy=0;" parent="WIyWlLk6GJQsqaUBKTNV-1" source="xZGPCKD-ZMuEWJ9LVh27-33" target="xZGPCKD-ZMuEWJ9LVh27-82" edge="1">
          <mxGeometry relative="1" as="geometry" />
        </mxCell>
        <mxCell id="xZGPCKD-ZMuEWJ9LVh27-33" value="CH2_INTRO" style="rounded=1;whiteSpace=wrap;html=1;fontSize=12;glass=0;strokeWidth=1;shadow=0;" parent="WIyWlLk6GJQsqaUBKTNV-1" vertex="1">
          <mxGeometry y="650" width="830" height="40" as="geometry" />
        </mxCell>
        <mxCell id="xZGPCKD-ZMuEWJ9LVh27-58" style="edgeStyle=orthogonalEdgeStyle;rounded=0;orthogonalLoop=1;jettySize=auto;html=1;entryX=0;entryY=0.5;entryDx=0;entryDy=0;dashed=1;" parent="WIyWlLk6GJQsqaUBKTNV-1" source="xZGPCKD-ZMuEWJ9LVh27-43" target="xZGPCKD-ZMuEWJ9LVh27-7" edge="1">
          <mxGeometry relative="1" as="geometry" />
        </mxCell>
        <mxCell id="xZGPCKD-ZMuEWJ9LVh27-59" style="edgeStyle=orthogonalEdgeStyle;rounded=0;orthogonalLoop=1;jettySize=auto;html=1;entryX=0;entryY=0.5;entryDx=0;entryDy=0;dashed=1;" parent="WIyWlLk6GJQsqaUBKTNV-1" source="xZGPCKD-ZMuEWJ9LVh27-43" target="xZGPCKD-ZMuEWJ9LVh27-8" edge="1">
          <mxGeometry relative="1" as="geometry" />
        </mxCell>
        <mxCell id="xZGPCKD-ZMuEWJ9LVh27-60" style="edgeStyle=orthogonalEdgeStyle;rounded=0;orthogonalLoop=1;jettySize=auto;html=1;entryX=0;entryY=0.5;entryDx=0;entryDy=0;dashed=1;" parent="WIyWlLk6GJQsqaUBKTNV-1" source="xZGPCKD-ZMuEWJ9LVh27-43" target="xZGPCKD-ZMuEWJ9LVh27-6" edge="1">
          <mxGeometry relative="1" as="geometry" />
        </mxCell>
        <mxCell id="xZGPCKD-ZMuEWJ9LVh27-43" value="CH1_A0_ALT" style="rounded=1;whiteSpace=wrap;html=1;fontSize=12;glass=0;strokeWidth=1;shadow=0;" parent="WIyWlLk6GJQsqaUBKTNV-1" vertex="1">
          <mxGeometry x="224" y="490" width="120" height="40" as="geometry" />
        </mxCell>
        <mxCell id="xZGPCKD-ZMuEWJ9LVh27-61" style="edgeStyle=orthogonalEdgeStyle;rounded=0;orthogonalLoop=1;jettySize=auto;html=1;entryX=0.5;entryY=0;entryDx=0;entryDy=0;" parent="WIyWlLk6GJQsqaUBKTNV-1" source="xZGPCKD-ZMuEWJ9LVh27-62" target="xZGPCKD-ZMuEWJ9LVh27-73" edge="1">
          <mxGeometry relative="1" as="geometry" />
        </mxCell>
        <mxCell id="5BbmML6RepyWTEeYlKqq-67" value="-2" style="edgeLabel;html=1;align=center;verticalAlign=middle;resizable=0;points=[];" vertex="1" connectable="0" parent="xZGPCKD-ZMuEWJ9LVh27-61">
          <mxGeometry x="0.4236" y="2" relative="1" as="geometry">
            <mxPoint as="offset" />
          </mxGeometry>
        </mxCell>
        <mxCell id="xZGPCKD-ZMuEWJ9LVh27-62" value="Invest in some vulnerability scanning tools and training for the team." style="rhombus;whiteSpace=wrap;html=1;shadow=0;fontFamily=Helvetica;fontSize=12;align=center;strokeWidth=1;spacing=6;spacingTop=-4;" parent="WIyWlLk6GJQsqaUBKTNV-1" vertex="1">
          <mxGeometry x="770" y="270" width="100" height="80" as="geometry" />
        </mxCell>
        <mxCell id="xZGPCKD-ZMuEWJ9LVh27-63" style="edgeStyle=orthogonalEdgeStyle;rounded=0;orthogonalLoop=1;jettySize=auto;html=1;entryX=0.5;entryY=0;entryDx=0;entryDy=0;" parent="WIyWlLk6GJQsqaUBKTNV-1" source="xZGPCKD-ZMuEWJ9LVh27-66" target="xZGPCKD-ZMuEWJ9LVh27-68" edge="1">
          <mxGeometry relative="1" as="geometry" />
        </mxCell>
        <mxCell id="xZGPCKD-ZMuEWJ9LVh27-64" style="edgeStyle=orthogonalEdgeStyle;rounded=0;orthogonalLoop=1;jettySize=auto;html=1;" parent="WIyWlLk6GJQsqaUBKTNV-1" source="xZGPCKD-ZMuEWJ9LVh27-66" target="xZGPCKD-ZMuEWJ9LVh27-62" edge="1">
          <mxGeometry relative="1" as="geometry" />
        </mxCell>
        <mxCell id="xZGPCKD-ZMuEWJ9LVh27-65" style="edgeStyle=orthogonalEdgeStyle;rounded=0;orthogonalLoop=1;jettySize=auto;html=1;" parent="WIyWlLk6GJQsqaUBKTNV-1" source="xZGPCKD-ZMuEWJ9LVh27-66" target="xZGPCKD-ZMuEWJ9LVh27-70" edge="1">
          <mxGeometry relative="1" as="geometry" />
        </mxCell>
        <mxCell id="xZGPCKD-ZMuEWJ9LVh27-66" value="CH1_C0" style="rounded=1;whiteSpace=wrap;html=1;fontSize=12;glass=0;strokeWidth=1;shadow=0;" parent="WIyWlLk6GJQsqaUBKTNV-1" vertex="1">
          <mxGeometry x="760" y="190" width="120" height="40" as="geometry" />
        </mxCell>
        <mxCell id="xZGPCKD-ZMuEWJ9LVh27-67" style="edgeStyle=orthogonalEdgeStyle;rounded=0;orthogonalLoop=1;jettySize=auto;html=1;" parent="WIyWlLk6GJQsqaUBKTNV-1" source="xZGPCKD-ZMuEWJ9LVh27-68" target="xZGPCKD-ZMuEWJ9LVh27-71" edge="1">
          <mxGeometry relative="1" as="geometry" />
        </mxCell>
        <mxCell id="xZGPCKD-ZMuEWJ9LVh27-68" value="Outsource to a third party to help us identify any security issues." style="rhombus;whiteSpace=wrap;html=1;shadow=0;fontFamily=Helvetica;fontSize=12;align=center;strokeWidth=1;spacing=6;spacingTop=-4;" parent="WIyWlLk6GJQsqaUBKTNV-1" vertex="1">
          <mxGeometry x="640" y="270" width="100" height="80" as="geometry" />
        </mxCell>
        <mxCell id="xZGPCKD-ZMuEWJ9LVh27-69" style="edgeStyle=orthogonalEdgeStyle;rounded=0;orthogonalLoop=1;jettySize=auto;html=1;entryX=0.5;entryY=0;entryDx=0;entryDy=0;" parent="WIyWlLk6GJQsqaUBKTNV-1" source="xZGPCKD-ZMuEWJ9LVh27-70" target="xZGPCKD-ZMuEWJ9LVh27-74" edge="1">
          <mxGeometry relative="1" as="geometry" />
        </mxCell>
        <mxCell id="xZGPCKD-ZMuEWJ9LVh27-70" value="Peer review of code using our own in-house developers." style="rhombus;whiteSpace=wrap;html=1;shadow=0;fontFamily=Helvetica;fontSize=12;align=center;strokeWidth=1;spacing=6;spacingTop=-4;" parent="WIyWlLk6GJQsqaUBKTNV-1" vertex="1">
          <mxGeometry x="900" y="270" width="100" height="80" as="geometry" />
        </mxCell>
        <mxCell id="xZGPCKD-ZMuEWJ9LVh27-79" style="edgeStyle=orthogonalEdgeStyle;rounded=0;orthogonalLoop=1;jettySize=auto;html=1;entryX=1;entryY=0.5;entryDx=0;entryDy=0;" parent="WIyWlLk6GJQsqaUBKTNV-1" source="xZGPCKD-ZMuEWJ9LVh27-71" target="xZGPCKD-ZMuEWJ9LVh27-43" edge="1">
          <mxGeometry relative="1" as="geometry">
            <Array as="points">
              <mxPoint x="690" y="510" />
            </Array>
          </mxGeometry>
        </mxCell>
        <mxCell id="xZGPCKD-ZMuEWJ9LVh27-71" value="CH1_C1" style="rounded=1;whiteSpace=wrap;html=1;fontSize=12;glass=0;strokeWidth=1;shadow=0;" parent="WIyWlLk6GJQsqaUBKTNV-1" vertex="1">
          <mxGeometry x="630" y="420" width="120" height="40" as="geometry" />
        </mxCell>
        <mxCell id="xZGPCKD-ZMuEWJ9LVh27-76" style="edgeStyle=orthogonalEdgeStyle;rounded=0;orthogonalLoop=1;jettySize=auto;html=1;" parent="WIyWlLk6GJQsqaUBKTNV-1" source="xZGPCKD-ZMuEWJ9LVh27-73" target="xZGPCKD-ZMuEWJ9LVh27-33" edge="1">
          <mxGeometry relative="1" as="geometry">
            <Array as="points">
              <mxPoint x="820" y="560" />
              <mxPoint x="415" y="560" />
            </Array>
          </mxGeometry>
        </mxCell>
        <mxCell id="xZGPCKD-ZMuEWJ9LVh27-73" value="CH1_C2" style="rounded=1;whiteSpace=wrap;html=1;fontSize=12;glass=0;strokeWidth=1;shadow=0;" parent="WIyWlLk6GJQsqaUBKTNV-1" vertex="1">
          <mxGeometry x="760" y="420" width="120" height="40" as="geometry" />
        </mxCell>
        <mxCell id="xZGPCKD-ZMuEWJ9LVh27-75" style="edgeStyle=orthogonalEdgeStyle;rounded=0;orthogonalLoop=1;jettySize=auto;html=1;" parent="WIyWlLk6GJQsqaUBKTNV-1" source="xZGPCKD-ZMuEWJ9LVh27-74" target="xZGPCKD-ZMuEWJ9LVh27-33" edge="1">
          <mxGeometry relative="1" as="geometry">
            <Array as="points">
              <mxPoint x="950" y="560" />
              <mxPoint x="415" y="560" />
            </Array>
          </mxGeometry>
        </mxCell>
        <mxCell id="xZGPCKD-ZMuEWJ9LVh27-74" value="CH1_C3" style="rounded=1;whiteSpace=wrap;html=1;fontSize=12;glass=0;strokeWidth=1;shadow=0;" parent="WIyWlLk6GJQsqaUBKTNV-1" vertex="1">
          <mxGeometry x="890" y="420" width="120" height="40" as="geometry" />
        </mxCell>
        <mxCell id="xZGPCKD-ZMuEWJ9LVh27-97" style="edgeStyle=orthogonalEdgeStyle;rounded=0;orthogonalLoop=1;jettySize=auto;html=1;" parent="WIyWlLk6GJQsqaUBKTNV-1" source="xZGPCKD-ZMuEWJ9LVh27-82" target="xZGPCKD-ZMuEWJ9LVh27-93" edge="1">
          <mxGeometry relative="1" as="geometry" />
        </mxCell>
        <mxCell id="xZGPCKD-ZMuEWJ9LVh27-82" value="&lt;div&gt;Use internal active directory to enforce strict access policies.&lt;br&gt;&lt;/div&gt;" style="rhombus;whiteSpace=wrap;html=1;shadow=0;fontFamily=Helvetica;fontSize=12;align=center;strokeWidth=1;spacing=6;spacingTop=-4;fillColor=#dae8fc;strokeColor=#6c8ebf;" parent="WIyWlLk6GJQsqaUBKTNV-1" vertex="1">
          <mxGeometry x="494" y="740" width="100" height="80" as="geometry" />
        </mxCell>
        <mxCell id="xZGPCKD-ZMuEWJ9LVh27-96" style="edgeStyle=orthogonalEdgeStyle;rounded=0;orthogonalLoop=1;jettySize=auto;html=1;entryX=0.5;entryY=0;entryDx=0;entryDy=0;" parent="WIyWlLk6GJQsqaUBKTNV-1" source="xZGPCKD-ZMuEWJ9LVh27-83" target="xZGPCKD-ZMuEWJ9LVh27-92" edge="1">
          <mxGeometry relative="1" as="geometry" />
        </mxCell>
        <mxCell id="5BbmML6RepyWTEeYlKqq-70" value="-2" style="edgeLabel;html=1;align=center;verticalAlign=middle;resizable=0;points=[];" vertex="1" connectable="0" parent="xZGPCKD-ZMuEWJ9LVh27-96">
          <mxGeometry x="-0.1267" y="-1" relative="1" as="geometry">
            <mxPoint y="-2" as="offset" />
          </mxGeometry>
        </mxCell>
        <mxCell id="xZGPCKD-ZMuEWJ9LVh27-83" value="Extend 2-factor authentication to 3rd parties." style="rhombus;whiteSpace=wrap;html=1;shadow=0;fontFamily=Helvetica;fontSize=12;align=center;strokeWidth=1;spacing=6;spacingTop=-4;fillColor=#dae8fc;strokeColor=#6c8ebf;" parent="WIyWlLk6GJQsqaUBKTNV-1" vertex="1">
          <mxGeometry x="365" y="740" width="100" height="80" as="geometry" />
        </mxCell>
        <mxCell id="xZGPCKD-ZMuEWJ9LVh27-94" style="edgeStyle=orthogonalEdgeStyle;rounded=0;orthogonalLoop=1;jettySize=auto;html=1;" parent="WIyWlLk6GJQsqaUBKTNV-1" source="xZGPCKD-ZMuEWJ9LVh27-84" target="xZGPCKD-ZMuEWJ9LVh27-91" edge="1">
          <mxGeometry relative="1" as="geometry" />
        </mxCell>
        <mxCell id="5BbmML6RepyWTEeYlKqq-69" value="-3" style="edgeLabel;html=1;align=center;verticalAlign=middle;resizable=0;points=[];" vertex="1" connectable="0" parent="xZGPCKD-ZMuEWJ9LVh27-94">
          <mxGeometry x="0.8641" relative="1" as="geometry">
            <mxPoint as="offset" />
          </mxGeometry>
        </mxCell>
        <mxCell id="xZGPCKD-ZMuEWJ9LVh27-84" value="Segment the network." style="rhombus;whiteSpace=wrap;html=1;shadow=0;fontFamily=Helvetica;fontSize=12;align=center;strokeWidth=1;spacing=6;spacingTop=-4;fillColor=#dae8fc;strokeColor=#6c8ebf;" parent="WIyWlLk6GJQsqaUBKTNV-1" vertex="1">
          <mxGeometry x="234" y="740" width="100" height="80" as="geometry" />
        </mxCell>
        <mxCell id="xZGPCKD-ZMuEWJ9LVh27-90" style="edgeStyle=orthogonalEdgeStyle;rounded=0;orthogonalLoop=1;jettySize=auto;html=1;entryX=0.5;entryY=0;entryDx=0;entryDy=0;" parent="WIyWlLk6GJQsqaUBKTNV-1" target="xZGPCKD-ZMuEWJ9LVh27-92" edge="1">
          <mxGeometry relative="1" as="geometry">
            <mxPoint x="415" y="880" as="sourcePoint" />
          </mxGeometry>
        </mxCell>
        <mxCell id="xZGPCKD-ZMuEWJ9LVh27-138" style="edgeStyle=orthogonalEdgeStyle;rounded=0;orthogonalLoop=1;jettySize=auto;html=1;entryX=0;entryY=0.5;entryDx=0;entryDy=0;" parent="WIyWlLk6GJQsqaUBKTNV-1" source="xZGPCKD-ZMuEWJ9LVh27-91" target="xZGPCKD-ZMuEWJ9LVh27-135" edge="1">
          <mxGeometry relative="1" as="geometry">
            <Array as="points">
              <mxPoint y="1040" />
            </Array>
          </mxGeometry>
        </mxCell>
        <mxCell id="xZGPCKD-ZMuEWJ9LVh27-91" value="CH2_A0" style="rounded=1;whiteSpace=wrap;html=1;fontSize=12;glass=0;strokeWidth=1;shadow=0;" parent="WIyWlLk6GJQsqaUBKTNV-1" vertex="1">
          <mxGeometry x="-60" y="860" width="120" height="40" as="geometry" />
        </mxCell>
        <mxCell id="xZGPCKD-ZMuEWJ9LVh27-136" style="edgeStyle=orthogonalEdgeStyle;rounded=0;orthogonalLoop=1;jettySize=auto;html=1;" parent="WIyWlLk6GJQsqaUBKTNV-1" source="xZGPCKD-ZMuEWJ9LVh27-92" target="xZGPCKD-ZMuEWJ9LVh27-135" edge="1">
          <mxGeometry relative="1" as="geometry" />
        </mxCell>
        <mxCell id="xZGPCKD-ZMuEWJ9LVh27-92" value="CH2_B0" style="rounded=1;whiteSpace=wrap;html=1;fontSize=12;glass=0;strokeWidth=1;shadow=0;" parent="WIyWlLk6GJQsqaUBKTNV-1" vertex="1">
          <mxGeometry x="355" y="870" width="120" height="40" as="geometry" />
        </mxCell>
        <mxCell id="xZGPCKD-ZMuEWJ9LVh27-137" style="edgeStyle=orthogonalEdgeStyle;rounded=0;orthogonalLoop=1;jettySize=auto;html=1;entryX=1;entryY=0.5;entryDx=0;entryDy=0;" parent="WIyWlLk6GJQsqaUBKTNV-1" source="xZGPCKD-ZMuEWJ9LVh27-93" target="xZGPCKD-ZMuEWJ9LVh27-135" edge="1">
          <mxGeometry relative="1" as="geometry">
            <Array as="points">
              <mxPoint x="820" y="1040" />
            </Array>
          </mxGeometry>
        </mxCell>
        <mxCell id="xZGPCKD-ZMuEWJ9LVh27-93" value="CH2_C0" style="rounded=1;whiteSpace=wrap;html=1;fontSize=12;glass=0;strokeWidth=1;shadow=0;" parent="WIyWlLk6GJQsqaUBKTNV-1" vertex="1">
          <mxGeometry x="760" y="860" width="120" height="40" as="geometry" />
        </mxCell>
        <mxCell id="xZGPCKD-ZMuEWJ9LVh27-98" value="CH2_A1" style="rounded=1;whiteSpace=wrap;html=1;fontSize=12;glass=0;strokeWidth=1;shadow=0;" parent="WIyWlLk6GJQsqaUBKTNV-1" vertex="1">
          <mxGeometry x="160" y="1150" width="120" height="40" as="geometry" />
        </mxCell>
        <mxCell id="xZGPCKD-ZMuEWJ9LVh27-99" value="CH2_B1" style="rounded=1;whiteSpace=wrap;html=1;fontSize=12;glass=0;strokeWidth=1;shadow=0;" parent="WIyWlLk6GJQsqaUBKTNV-1" vertex="1">
          <mxGeometry x="560" y="1150" width="120" height="40" as="geometry" />
        </mxCell>
        <mxCell id="xZGPCKD-ZMuEWJ9LVh27-125" style="edgeStyle=orthogonalEdgeStyle;rounded=0;orthogonalLoop=1;jettySize=auto;html=1;" parent="WIyWlLk6GJQsqaUBKTNV-1" source="xZGPCKD-ZMuEWJ9LVh27-100" target="xZGPCKD-ZMuEWJ9LVh27-99" edge="1">
          <mxGeometry relative="1" as="geometry" />
        </mxCell>
        <mxCell id="5BbmML6RepyWTEeYlKqq-71" value="-2" style="edgeLabel;html=1;align=center;verticalAlign=middle;resizable=0;points=[];" vertex="1" connectable="0" parent="xZGPCKD-ZMuEWJ9LVh27-125">
          <mxGeometry x="0.1156" y="-1" relative="1" as="geometry">
            <mxPoint as="offset" />
          </mxGeometry>
        </mxCell>
        <mxCell id="xZGPCKD-ZMuEWJ9LVh27-100" value="&lt;div&gt;Encrypt all the Intellectual Property.&lt;br&gt;&lt;/div&gt;" style="rhombus;whiteSpace=wrap;html=1;shadow=0;fontFamily=Helvetica;fontSize=12;align=center;strokeWidth=1;spacing=6;spacingTop=-4;" parent="WIyWlLk6GJQsqaUBKTNV-1" vertex="1">
          <mxGeometry x="570" y="1000" width="100" height="80" as="geometry" />
        </mxCell>
        <mxCell id="xZGPCKD-ZMuEWJ9LVh27-124" style="edgeStyle=orthogonalEdgeStyle;rounded=0;orthogonalLoop=1;jettySize=auto;html=1;entryX=0.5;entryY=0;entryDx=0;entryDy=0;" parent="WIyWlLk6GJQsqaUBKTNV-1" source="xZGPCKD-ZMuEWJ9LVh27-101" target="xZGPCKD-ZMuEWJ9LVh27-98" edge="1">
          <mxGeometry relative="1" as="geometry" />
        </mxCell>
        <mxCell id="xZGPCKD-ZMuEWJ9LVh27-101" value="&lt;div&gt;Ensure that we are fully compliant with all the regulatory requirements.&lt;br&gt;&lt;/div&gt;" style="rhombus;whiteSpace=wrap;html=1;shadow=0;fontFamily=Helvetica;fontSize=12;align=center;strokeWidth=1;spacing=6;spacingTop=-4;" parent="WIyWlLk6GJQsqaUBKTNV-1" vertex="1">
          <mxGeometry x="170" y="1000" width="100" height="80" as="geometry" />
        </mxCell>
        <mxCell id="xZGPCKD-ZMuEWJ9LVh27-150" style="edgeStyle=orthogonalEdgeStyle;rounded=0;orthogonalLoop=1;jettySize=auto;html=1;entryX=0.5;entryY=0;entryDx=0;entryDy=0;" parent="WIyWlLk6GJQsqaUBKTNV-1" source="xZGPCKD-ZMuEWJ9LVh27-126" target="xZGPCKD-ZMuEWJ9LVh27-147" edge="1">
          <mxGeometry relative="1" as="geometry" />
        </mxCell>
        <mxCell id="5BbmML6RepyWTEeYlKqq-72" value="-2" style="edgeLabel;html=1;align=center;verticalAlign=middle;resizable=0;points=[];" vertex="1" connectable="0" parent="xZGPCKD-ZMuEWJ9LVh27-150">
          <mxGeometry x="0.1129" relative="1" as="geometry">
            <mxPoint as="offset" />
          </mxGeometry>
        </mxCell>
        <mxCell id="xZGPCKD-ZMuEWJ9LVh27-126" value="&lt;div&gt;Invest in Breach Detection technology.&lt;br&gt;&lt;/div&gt;" style="rhombus;whiteSpace=wrap;html=1;shadow=0;fontFamily=Helvetica;fontSize=12;align=center;strokeWidth=1;spacing=6;spacingTop=-4;fillColor=#d5e8d4;strokeColor=#82b366;" parent="WIyWlLk6GJQsqaUBKTNV-1" vertex="1">
          <mxGeometry x="234" y="1260" width="100" height="80" as="geometry" />
        </mxCell>
        <mxCell id="xZGPCKD-ZMuEWJ9LVh27-153" style="edgeStyle=orthogonalEdgeStyle;rounded=0;orthogonalLoop=1;jettySize=auto;html=1;" parent="WIyWlLk6GJQsqaUBKTNV-1" source="xZGPCKD-ZMuEWJ9LVh27-127" target="xZGPCKD-ZMuEWJ9LVh27-148" edge="1">
          <mxGeometry relative="1" as="geometry" />
        </mxCell>
        <mxCell id="5BbmML6RepyWTEeYlKqq-73" value="-2" style="edgeLabel;html=1;align=center;verticalAlign=middle;resizable=0;points=[];" vertex="1" connectable="0" parent="xZGPCKD-ZMuEWJ9LVh27-153">
          <mxGeometry x="0.0993" relative="1" as="geometry">
            <mxPoint as="offset" />
          </mxGeometry>
        </mxCell>
        <mxCell id="xZGPCKD-ZMuEWJ9LVh27-127" value="&lt;div&gt;Carry out an audit of existing security technologies. Issue RFP documents to traditional security vendors.&lt;br&gt;&lt;/div&gt;" style="rhombus;whiteSpace=wrap;html=1;shadow=0;fontFamily=Helvetica;fontSize=12;align=center;strokeWidth=1;spacing=6;spacingTop=-4;" parent="WIyWlLk6GJQsqaUBKTNV-1" vertex="1">
          <mxGeometry x="364" y="1260" width="100" height="80" as="geometry" />
        </mxCell>
        <mxCell id="xZGPCKD-ZMuEWJ9LVh27-152" style="edgeStyle=orthogonalEdgeStyle;rounded=0;orthogonalLoop=1;jettySize=auto;html=1;" parent="WIyWlLk6GJQsqaUBKTNV-1" source="xZGPCKD-ZMuEWJ9LVh27-128" target="xZGPCKD-ZMuEWJ9LVh27-149" edge="1">
          <mxGeometry relative="1" as="geometry" />
        </mxCell>
        <mxCell id="xZGPCKD-ZMuEWJ9LVh27-128" value="&lt;div&gt;The Security Manager is responsible for control and monitoring with current tools.&lt;br&gt;&lt;/div&gt;" style="rhombus;whiteSpace=wrap;html=1;shadow=0;fontFamily=Helvetica;fontSize=12;align=center;strokeWidth=1;spacing=6;spacingTop=-4;" parent="WIyWlLk6GJQsqaUBKTNV-1" vertex="1">
          <mxGeometry x="494" y="1260" width="100" height="80" as="geometry" />
        </mxCell>
        <mxCell id="xZGPCKD-ZMuEWJ9LVh27-145" style="edgeStyle=orthogonalEdgeStyle;rounded=0;orthogonalLoop=1;jettySize=auto;html=1;entryX=0.842;entryY=0.028;entryDx=0;entryDy=0;entryPerimeter=0;" parent="WIyWlLk6GJQsqaUBKTNV-1" source="xZGPCKD-ZMuEWJ9LVh27-99" target="xZGPCKD-ZMuEWJ9LVh27-139" edge="1">
          <mxGeometry relative="1" as="geometry" />
        </mxCell>
        <mxCell id="xZGPCKD-ZMuEWJ9LVh27-146" style="edgeStyle=orthogonalEdgeStyle;rounded=0;orthogonalLoop=1;jettySize=auto;html=1;entryX=0.177;entryY=0.028;entryDx=0;entryDy=0;entryPerimeter=0;" parent="WIyWlLk6GJQsqaUBKTNV-1" source="xZGPCKD-ZMuEWJ9LVh27-98" target="xZGPCKD-ZMuEWJ9LVh27-139" edge="1">
          <mxGeometry relative="1" as="geometry" />
        </mxCell>
        <mxCell id="xZGPCKD-ZMuEWJ9LVh27-160" style="edgeStyle=orthogonalEdgeStyle;rounded=0;orthogonalLoop=1;jettySize=auto;html=1;" parent="WIyWlLk6GJQsqaUBKTNV-1" source="xZGPCKD-ZMuEWJ9LVh27-147" target="xZGPCKD-ZMuEWJ9LVh27-154" edge="1">
          <mxGeometry relative="1" as="geometry" />
        </mxCell>
        <mxCell id="xZGPCKD-ZMuEWJ9LVh27-147" value="CH2_A2" style="rounded=1;whiteSpace=wrap;html=1;fontSize=12;glass=0;strokeWidth=1;shadow=0;" parent="WIyWlLk6GJQsqaUBKTNV-1" vertex="1">
          <mxGeometry x="224" y="1410" width="120" height="40" as="geometry" />
        </mxCell>
        <mxCell id="xZGPCKD-ZMuEWJ9LVh27-159" style="edgeStyle=orthogonalEdgeStyle;rounded=0;orthogonalLoop=1;jettySize=auto;html=1;" parent="WIyWlLk6GJQsqaUBKTNV-1" source="xZGPCKD-ZMuEWJ9LVh27-148" target="xZGPCKD-ZMuEWJ9LVh27-154" edge="1">
          <mxGeometry relative="1" as="geometry" />
        </mxCell>
        <mxCell id="xZGPCKD-ZMuEWJ9LVh27-148" value="CH2_B2" style="rounded=1;whiteSpace=wrap;html=1;fontSize=12;glass=0;strokeWidth=1;shadow=0;" parent="WIyWlLk6GJQsqaUBKTNV-1" vertex="1">
          <mxGeometry x="354" y="1410" width="120" height="40" as="geometry" />
        </mxCell>
        <mxCell id="xZGPCKD-ZMuEWJ9LVh27-158" style="edgeStyle=orthogonalEdgeStyle;rounded=0;orthogonalLoop=1;jettySize=auto;html=1;" parent="WIyWlLk6GJQsqaUBKTNV-1" source="xZGPCKD-ZMuEWJ9LVh27-149" target="xZGPCKD-ZMuEWJ9LVh27-154" edge="1">
          <mxGeometry relative="1" as="geometry" />
        </mxCell>
        <mxCell id="xZGPCKD-ZMuEWJ9LVh27-149" value="CH2_C2" style="rounded=1;whiteSpace=wrap;html=1;fontSize=12;glass=0;strokeWidth=1;shadow=0;" parent="WIyWlLk6GJQsqaUBKTNV-1" vertex="1">
          <mxGeometry x="484" y="1410" width="120" height="40" as="geometry" />
        </mxCell>
        <mxCell id="5BbmML6RepyWTEeYlKqq-74" style="edgeStyle=orthogonalEdgeStyle;rounded=0;orthogonalLoop=1;jettySize=auto;html=1;entryX=0.5;entryY=0;entryDx=0;entryDy=0;" edge="1" parent="WIyWlLk6GJQsqaUBKTNV-1" source="xZGPCKD-ZMuEWJ9LVh27-154" target="xZGPCKD-ZMuEWJ9LVh27-163">
          <mxGeometry relative="1" as="geometry" />
        </mxCell>
        <mxCell id="5BbmML6RepyWTEeYlKqq-75" style="edgeStyle=orthogonalEdgeStyle;rounded=0;orthogonalLoop=1;jettySize=auto;html=1;entryX=0.5;entryY=0;entryDx=0;entryDy=0;" edge="1" parent="WIyWlLk6GJQsqaUBKTNV-1" source="xZGPCKD-ZMuEWJ9LVh27-154" target="xZGPCKD-ZMuEWJ9LVh27-162">
          <mxGeometry relative="1" as="geometry" />
        </mxCell>
        <mxCell id="5BbmML6RepyWTEeYlKqq-76" style="edgeStyle=orthogonalEdgeStyle;rounded=0;orthogonalLoop=1;jettySize=auto;html=1;entryX=0.5;entryY=0;entryDx=0;entryDy=0;" edge="1" parent="WIyWlLk6GJQsqaUBKTNV-1" source="xZGPCKD-ZMuEWJ9LVh27-154" target="xZGPCKD-ZMuEWJ9LVh27-161">
          <mxGeometry relative="1" as="geometry" />
        </mxCell>
        <mxCell id="xZGPCKD-ZMuEWJ9LVh27-154" value="CH3_INTRO / CH3_INTRO_W&lt;br&gt;&amp;nbsp;(If picked &quot;Invest in Breach Detection technology.&quot; all following will have _W appended until CH4 Intro)" style="rounded=1;whiteSpace=wrap;html=1;fontSize=12;glass=0;strokeWidth=1;shadow=0;" parent="WIyWlLk6GJQsqaUBKTNV-1" vertex="1">
          <mxGeometry x="-1" y="1510" width="830" height="40" as="geometry" />
        </mxCell>
        <mxCell id="5BbmML6RepyWTEeYlKqq-5" style="edgeStyle=orthogonalEdgeStyle;rounded=0;orthogonalLoop=1;jettySize=auto;html=1;entryX=0.5;entryY=0;entryDx=0;entryDy=0;" edge="1" parent="WIyWlLk6GJQsqaUBKTNV-1" source="xZGPCKD-ZMuEWJ9LVh27-161" target="xZGPCKD-ZMuEWJ9LVh27-167">
          <mxGeometry relative="1" as="geometry" />
        </mxCell>
        <mxCell id="xZGPCKD-ZMuEWJ9LVh27-161" value="&lt;div&gt;Invite them to the test the app in a controlled environment.&lt;br&gt;&lt;/div&gt;" style="rhombus;whiteSpace=wrap;html=1;shadow=0;fontFamily=Helvetica;fontSize=12;align=center;strokeWidth=1;spacing=6;spacingTop=-4;" parent="WIyWlLk6GJQsqaUBKTNV-1" vertex="1">
          <mxGeometry x="494" y="1610" width="100" height="80" as="geometry" />
        </mxCell>
        <mxCell id="5BbmML6RepyWTEeYlKqq-3" style="edgeStyle=orthogonalEdgeStyle;rounded=0;orthogonalLoop=1;jettySize=auto;html=1;entryX=0.5;entryY=0;entryDx=0;entryDy=0;" edge="1" parent="WIyWlLk6GJQsqaUBKTNV-1" source="xZGPCKD-ZMuEWJ9LVh27-162" target="xZGPCKD-ZMuEWJ9LVh27-166">
          <mxGeometry relative="1" as="geometry" />
        </mxCell>
        <mxCell id="xZGPCKD-ZMuEWJ9LVh27-162" value="Make the journalists wait till the launch of the app." style="rhombus;whiteSpace=wrap;html=1;shadow=0;fontFamily=Helvetica;fontSize=12;align=center;strokeWidth=1;spacing=6;spacingTop=-4;" parent="WIyWlLk6GJQsqaUBKTNV-1" vertex="1">
          <mxGeometry x="364" y="1610" width="100" height="80" as="geometry" />
        </mxCell>
        <mxCell id="5BbmML6RepyWTEeYlKqq-0" style="edgeStyle=orthogonalEdgeStyle;rounded=0;orthogonalLoop=1;jettySize=auto;html=1;entryX=0.5;entryY=0;entryDx=0;entryDy=0;" edge="1" parent="WIyWlLk6GJQsqaUBKTNV-1" source="xZGPCKD-ZMuEWJ9LVh27-163" target="xZGPCKD-ZMuEWJ9LVh27-165">
          <mxGeometry relative="1" as="geometry" />
        </mxCell>
        <mxCell id="xZGPCKD-ZMuEWJ9LVh27-163" value="Give them access to the app with limited functionality." style="rhombus;whiteSpace=wrap;html=1;shadow=0;fontFamily=Helvetica;fontSize=12;align=center;strokeWidth=1;spacing=6;spacingTop=-4;" parent="WIyWlLk6GJQsqaUBKTNV-1" vertex="1">
          <mxGeometry x="234" y="1610" width="100" height="80" as="geometry" />
        </mxCell>
        <mxCell id="5BbmML6RepyWTEeYlKqq-79" style="edgeStyle=orthogonalEdgeStyle;rounded=0;orthogonalLoop=1;jettySize=auto;html=1;entryX=0.5;entryY=0;entryDx=0;entryDy=0;" edge="1" parent="WIyWlLk6GJQsqaUBKTNV-1" source="xZGPCKD-ZMuEWJ9LVh27-165" target="xZGPCKD-ZMuEWJ9LVh27-169">
          <mxGeometry relative="1" as="geometry" />
        </mxCell>
        <mxCell id="5BbmML6RepyWTEeYlKqq-80" style="edgeStyle=orthogonalEdgeStyle;rounded=0;orthogonalLoop=1;jettySize=auto;html=1;entryX=0.5;entryY=0;entryDx=0;entryDy=0;" edge="1" parent="WIyWlLk6GJQsqaUBKTNV-1" source="xZGPCKD-ZMuEWJ9LVh27-165" target="xZGPCKD-ZMuEWJ9LVh27-170">
          <mxGeometry relative="1" as="geometry" />
        </mxCell>
        <mxCell id="xZGPCKD-ZMuEWJ9LVh27-165" value="CH3_A0" style="rounded=1;whiteSpace=wrap;html=1;fontSize=12;glass=0;strokeWidth=1;shadow=0;" parent="WIyWlLk6GJQsqaUBKTNV-1" vertex="1">
          <mxGeometry x="-60" y="1850" width="120" height="40" as="geometry" />
        </mxCell>
        <mxCell id="5BbmML6RepyWTEeYlKqq-78" style="edgeStyle=orthogonalEdgeStyle;rounded=0;orthogonalLoop=1;jettySize=auto;html=1;entryX=0.5;entryY=0;entryDx=0;entryDy=0;exitX=0.5;exitY=1;exitDx=0;exitDy=0;" edge="1" parent="WIyWlLk6GJQsqaUBKTNV-1" source="xZGPCKD-ZMuEWJ9LVh27-166" target="5BbmML6RepyWTEeYlKqq-7">
          <mxGeometry relative="1" as="geometry">
            <Array as="points">
              <mxPoint x="414" y="1800" />
              <mxPoint x="544" y="1800" />
            </Array>
          </mxGeometry>
        </mxCell>
        <mxCell id="5BbmML6RepyWTEeYlKqq-83" style="edgeStyle=orthogonalEdgeStyle;rounded=0;orthogonalLoop=1;jettySize=auto;html=1;entryX=0.5;entryY=0;entryDx=0;entryDy=0;exitX=0.5;exitY=1;exitDx=0;exitDy=0;" edge="1" parent="WIyWlLk6GJQsqaUBKTNV-1" source="xZGPCKD-ZMuEWJ9LVh27-166" target="xZGPCKD-ZMuEWJ9LVh27-168">
          <mxGeometry relative="1" as="geometry">
            <Array as="points">
              <mxPoint x="414" y="1800" />
              <mxPoint x="284" y="1800" />
            </Array>
          </mxGeometry>
        </mxCell>
        <mxCell id="5BbmML6RepyWTEeYlKqq-84" style="edgeStyle=orthogonalEdgeStyle;rounded=0;orthogonalLoop=1;jettySize=auto;html=1;entryX=0.5;entryY=0;entryDx=0;entryDy=0;" edge="1" parent="WIyWlLk6GJQsqaUBKTNV-1" source="xZGPCKD-ZMuEWJ9LVh27-166" target="5BbmML6RepyWTEeYlKqq-8">
          <mxGeometry relative="1" as="geometry" />
        </mxCell>
        <mxCell id="xZGPCKD-ZMuEWJ9LVh27-166" value="CH3_B0" style="rounded=1;whiteSpace=wrap;html=1;fontSize=12;glass=0;strokeWidth=1;shadow=0;" parent="WIyWlLk6GJQsqaUBKTNV-1" vertex="1">
          <mxGeometry x="354" y="1740" width="120" height="40" as="geometry" />
        </mxCell>
        <mxCell id="5BbmML6RepyWTEeYlKqq-87" style="edgeStyle=orthogonalEdgeStyle;rounded=0;orthogonalLoop=1;jettySize=auto;html=1;entryX=0.5;entryY=0;entryDx=0;entryDy=0;" edge="1" parent="WIyWlLk6GJQsqaUBKTNV-1" source="xZGPCKD-ZMuEWJ9LVh27-167" target="xZGPCKD-ZMuEWJ9LVh27-172">
          <mxGeometry relative="1" as="geometry" />
        </mxCell>
        <mxCell id="5BbmML6RepyWTEeYlKqq-88" style="edgeStyle=orthogonalEdgeStyle;rounded=0;orthogonalLoop=1;jettySize=auto;html=1;entryX=0.5;entryY=0;entryDx=0;entryDy=0;" edge="1" parent="WIyWlLk6GJQsqaUBKTNV-1" source="xZGPCKD-ZMuEWJ9LVh27-167" target="xZGPCKD-ZMuEWJ9LVh27-171">
          <mxGeometry relative="1" as="geometry" />
        </mxCell>
        <mxCell id="xZGPCKD-ZMuEWJ9LVh27-167" value="CH3_C0" style="rounded=1;whiteSpace=wrap;html=1;fontSize=12;glass=0;strokeWidth=1;shadow=0;" parent="WIyWlLk6GJQsqaUBKTNV-1" vertex="1">
          <mxGeometry x="780" y="1850" width="120" height="40" as="geometry" />
        </mxCell>
        <mxCell id="5BbmML6RepyWTEeYlKqq-16" style="edgeStyle=orthogonalEdgeStyle;rounded=0;orthogonalLoop=1;jettySize=auto;html=1;entryX=1;entryY=0.5;entryDx=0;entryDy=0;" edge="1" parent="WIyWlLk6GJQsqaUBKTNV-1" source="xZGPCKD-ZMuEWJ9LVh27-168" target="xZGPCKD-ZMuEWJ9LVh27-165">
          <mxGeometry relative="1" as="geometry" />
        </mxCell>
        <mxCell id="xZGPCKD-ZMuEWJ9LVh27-168" value="Give them access to the app with limited functionality." style="rhombus;whiteSpace=wrap;html=1;shadow=0;fontFamily=Helvetica;fontSize=12;align=center;strokeWidth=1;spacing=6;spacingTop=-4;" parent="WIyWlLk6GJQsqaUBKTNV-1" vertex="1">
          <mxGeometry x="234" y="1830" width="100" height="80" as="geometry" />
        </mxCell>
        <mxCell id="5BbmML6RepyWTEeYlKqq-82" style="edgeStyle=orthogonalEdgeStyle;rounded=0;orthogonalLoop=1;jettySize=auto;html=1;entryX=0.5;entryY=0;entryDx=0;entryDy=0;" edge="1" parent="WIyWlLk6GJQsqaUBKTNV-1" source="xZGPCKD-ZMuEWJ9LVh27-169" target="5BbmML6RepyWTEeYlKqq-1">
          <mxGeometry relative="1" as="geometry" />
        </mxCell>
        <mxCell id="xZGPCKD-ZMuEWJ9LVh27-169" value="Invite them to the test the app in a controlled environment." style="rhombus;whiteSpace=wrap;html=1;shadow=0;fontFamily=Helvetica;fontSize=12;align=center;strokeWidth=1;spacing=6;spacingTop=-4;" parent="WIyWlLk6GJQsqaUBKTNV-1" vertex="1">
          <mxGeometry x="-130" y="1960" width="100" height="80" as="geometry" />
        </mxCell>
        <mxCell id="5BbmML6RepyWTEeYlKqq-81" style="edgeStyle=orthogonalEdgeStyle;rounded=0;orthogonalLoop=1;jettySize=auto;html=1;entryX=0.5;entryY=0;entryDx=0;entryDy=0;" edge="1" parent="WIyWlLk6GJQsqaUBKTNV-1" source="xZGPCKD-ZMuEWJ9LVh27-170" target="5BbmML6RepyWTEeYlKqq-6">
          <mxGeometry relative="1" as="geometry" />
        </mxCell>
        <mxCell id="xZGPCKD-ZMuEWJ9LVh27-170" value="Make the journalists wait till the launch of the app." style="rhombus;whiteSpace=wrap;html=1;shadow=0;fontFamily=Helvetica;fontSize=12;align=center;strokeWidth=1;spacing=6;spacingTop=-4;" parent="WIyWlLk6GJQsqaUBKTNV-1" vertex="1">
          <mxGeometry x="30" y="1960" width="100" height="80" as="geometry" />
        </mxCell>
        <mxCell id="5BbmML6RepyWTEeYlKqq-98" style="edgeStyle=orthogonalEdgeStyle;rounded=0;orthogonalLoop=1;jettySize=auto;html=1;entryX=0.5;entryY=0;entryDx=0;entryDy=0;" edge="1" parent="WIyWlLk6GJQsqaUBKTNV-1" source="xZGPCKD-ZMuEWJ9LVh27-171" target="5BbmML6RepyWTEeYlKqq-18">
          <mxGeometry relative="1" as="geometry" />
        </mxCell>
        <mxCell id="xZGPCKD-ZMuEWJ9LVh27-171" value="Tell the journalist that you will look further into the possibility." style="rhombus;whiteSpace=wrap;html=1;shadow=0;fontFamily=Helvetica;fontSize=12;align=center;strokeWidth=1;spacing=6;spacingTop=-4;" parent="WIyWlLk6GJQsqaUBKTNV-1" vertex="1">
          <mxGeometry x="700" y="2240" width="100" height="80" as="geometry" />
        </mxCell>
        <mxCell id="5BbmML6RepyWTEeYlKqq-99" style="edgeStyle=orthogonalEdgeStyle;rounded=0;orthogonalLoop=1;jettySize=auto;html=1;entryX=0.5;entryY=0;entryDx=0;entryDy=0;" edge="1" parent="WIyWlLk6GJQsqaUBKTNV-1" source="xZGPCKD-ZMuEWJ9LVh27-172" target="5BbmML6RepyWTEeYlKqq-19">
          <mxGeometry relative="1" as="geometry" />
        </mxCell>
        <mxCell id="xZGPCKD-ZMuEWJ9LVh27-172" value="We are very sorry, but a high-security project, can not go outside the company." style="rhombus;whiteSpace=wrap;html=1;shadow=0;fontFamily=Helvetica;fontSize=12;align=center;strokeWidth=1;spacing=6;spacingTop=-4;" parent="WIyWlLk6GJQsqaUBKTNV-1" vertex="1">
          <mxGeometry x="870" y="2240" width="100" height="80" as="geometry" />
        </mxCell>
        <mxCell id="5BbmML6RepyWTEeYlKqq-86" style="edgeStyle=orthogonalEdgeStyle;rounded=0;orthogonalLoop=1;jettySize=auto;html=1;entryX=0.5;entryY=0;entryDx=0;entryDy=0;" edge="1" parent="WIyWlLk6GJQsqaUBKTNV-1" source="5BbmML6RepyWTEeYlKqq-1" target="5BbmML6RepyWTEeYlKqq-9">
          <mxGeometry relative="1" as="geometry" />
        </mxCell>
        <mxCell id="5BbmML6RepyWTEeYlKqq-1" value="CH3_A1" style="rounded=1;whiteSpace=wrap;html=1;fontSize=12;glass=0;strokeWidth=1;shadow=0;" vertex="1" parent="WIyWlLk6GJQsqaUBKTNV-1">
          <mxGeometry x="-140" y="2090" width="120" height="40" as="geometry" />
        </mxCell>
        <mxCell id="5BbmML6RepyWTEeYlKqq-103" style="edgeStyle=orthogonalEdgeStyle;rounded=0;orthogonalLoop=1;jettySize=auto;html=1;entryX=0.5;entryY=0;entryDx=0;entryDy=0;" edge="1" parent="WIyWlLk6GJQsqaUBKTNV-1" source="5BbmML6RepyWTEeYlKqq-6" target="5BbmML6RepyWTEeYlKqq-91">
          <mxGeometry relative="1" as="geometry" />
        </mxCell>
        <mxCell id="5BbmML6RepyWTEeYlKqq-6" value="CH3_A2" style="rounded=1;whiteSpace=wrap;html=1;fontSize=12;glass=0;strokeWidth=1;shadow=0;" vertex="1" parent="WIyWlLk6GJQsqaUBKTNV-1">
          <mxGeometry x="20" y="2380" width="120" height="40" as="geometry" />
        </mxCell>
        <mxCell id="5BbmML6RepyWTEeYlKqq-17" style="edgeStyle=orthogonalEdgeStyle;rounded=0;orthogonalLoop=1;jettySize=auto;html=1;entryX=0;entryY=0.5;entryDx=0;entryDy=0;" edge="1" parent="WIyWlLk6GJQsqaUBKTNV-1" source="5BbmML6RepyWTEeYlKqq-7" target="xZGPCKD-ZMuEWJ9LVh27-167">
          <mxGeometry relative="1" as="geometry" />
        </mxCell>
        <mxCell id="5BbmML6RepyWTEeYlKqq-7" value="Invite them to the test the app in a controlled environment." style="rhombus;whiteSpace=wrap;html=1;shadow=0;fontFamily=Helvetica;fontSize=12;align=center;strokeWidth=1;spacing=6;spacingTop=-4;" vertex="1" parent="WIyWlLk6GJQsqaUBKTNV-1">
          <mxGeometry x="494" y="1830" width="100" height="80" as="geometry" />
        </mxCell>
        <mxCell id="5BbmML6RepyWTEeYlKqq-85" style="edgeStyle=orthogonalEdgeStyle;rounded=0;orthogonalLoop=1;jettySize=auto;html=1;entryX=0.5;entryY=0;entryDx=0;entryDy=0;" edge="1" parent="WIyWlLk6GJQsqaUBKTNV-1" source="5BbmML6RepyWTEeYlKqq-8" target="5BbmML6RepyWTEeYlKqq-11">
          <mxGeometry relative="1" as="geometry" />
        </mxCell>
        <mxCell id="5BbmML6RepyWTEeYlKqq-8" value="Make the journalists wait till the launch of the app." style="rhombus;whiteSpace=wrap;html=1;shadow=0;fontFamily=Helvetica;fontSize=12;align=center;strokeWidth=1;spacing=6;spacingTop=-4;" vertex="1" parent="WIyWlLk6GJQsqaUBKTNV-1">
          <mxGeometry x="364" y="1830" width="100" height="80" as="geometry" />
        </mxCell>
        <mxCell id="5BbmML6RepyWTEeYlKqq-89" style="edgeStyle=orthogonalEdgeStyle;rounded=0;orthogonalLoop=1;jettySize=auto;html=1;entryX=0;entryY=0.5;entryDx=0;entryDy=0;dashed=1;exitX=0.5;exitY=1;exitDx=0;exitDy=0;" edge="1" parent="WIyWlLk6GJQsqaUBKTNV-1" source="5BbmML6RepyWTEeYlKqq-9" target="xZGPCKD-ZMuEWJ9LVh27-171">
          <mxGeometry relative="1" as="geometry" />
        </mxCell>
        <mxCell id="5BbmML6RepyWTEeYlKqq-90" style="edgeStyle=orthogonalEdgeStyle;rounded=0;orthogonalLoop=1;jettySize=auto;html=1;entryX=1;entryY=0.5;entryDx=0;entryDy=0;dashed=1;exitX=1;exitY=0.5;exitDx=0;exitDy=0;" edge="1" parent="WIyWlLk6GJQsqaUBKTNV-1" source="5BbmML6RepyWTEeYlKqq-9" target="xZGPCKD-ZMuEWJ9LVh27-172">
          <mxGeometry relative="1" as="geometry" />
        </mxCell>
        <mxCell id="5BbmML6RepyWTEeYlKqq-9" value="CH3_C0_ALT" style="rounded=1;whiteSpace=wrap;html=1;fontSize=12;glass=0;strokeWidth=1;shadow=0;" vertex="1" parent="WIyWlLk6GJQsqaUBKTNV-1">
          <mxGeometry x="-140" y="2180" width="120" height="40" as="geometry" />
        </mxCell>
        <mxCell id="5BbmML6RepyWTEeYlKqq-102" style="edgeStyle=orthogonalEdgeStyle;rounded=0;orthogonalLoop=1;jettySize=auto;html=1;entryX=0.5;entryY=0;entryDx=0;entryDy=0;" edge="1" parent="WIyWlLk6GJQsqaUBKTNV-1" source="5BbmML6RepyWTEeYlKqq-11" target="5BbmML6RepyWTEeYlKqq-91">
          <mxGeometry relative="1" as="geometry" />
        </mxCell>
        <mxCell id="5BbmML6RepyWTEeYlKqq-11" value="CH3_B1" style="rounded=1;whiteSpace=wrap;html=1;fontSize=12;glass=0;strokeWidth=1;shadow=0;" vertex="1" parent="WIyWlLk6GJQsqaUBKTNV-1">
          <mxGeometry x="355" y="2380" width="120" height="40" as="geometry" />
        </mxCell>
        <mxCell id="5BbmML6RepyWTEeYlKqq-100" style="edgeStyle=orthogonalEdgeStyle;rounded=0;orthogonalLoop=1;jettySize=auto;html=1;entryX=0.5;entryY=0;entryDx=0;entryDy=0;" edge="1" parent="WIyWlLk6GJQsqaUBKTNV-1" source="5BbmML6RepyWTEeYlKqq-18" target="5BbmML6RepyWTEeYlKqq-91">
          <mxGeometry relative="1" as="geometry" />
        </mxCell>
        <mxCell id="5BbmML6RepyWTEeYlKqq-18" value="CH3_C1" style="rounded=1;whiteSpace=wrap;html=1;fontSize=12;glass=0;strokeWidth=1;shadow=0;" vertex="1" parent="WIyWlLk6GJQsqaUBKTNV-1">
          <mxGeometry x="690" y="2380" width="120" height="40" as="geometry" />
        </mxCell>
        <mxCell id="5BbmML6RepyWTEeYlKqq-105" style="edgeStyle=orthogonalEdgeStyle;rounded=0;orthogonalLoop=1;jettySize=auto;html=1;entryX=0.5;entryY=0;entryDx=0;entryDy=0;" edge="1" parent="WIyWlLk6GJQsqaUBKTNV-1" source="5BbmML6RepyWTEeYlKqq-19" target="5BbmML6RepyWTEeYlKqq-91">
          <mxGeometry relative="1" as="geometry">
            <Array as="points">
              <mxPoint x="920" y="2490" />
              <mxPoint x="415" y="2490" />
            </Array>
          </mxGeometry>
        </mxCell>
        <mxCell id="5BbmML6RepyWTEeYlKqq-19" value="CH3_C2" style="rounded=1;whiteSpace=wrap;html=1;fontSize=12;glass=0;strokeWidth=1;shadow=0;" vertex="1" parent="WIyWlLk6GJQsqaUBKTNV-1">
          <mxGeometry x="860" y="2380" width="120" height="40" as="geometry" />
        </mxCell>
        <mxCell id="5BbmML6RepyWTEeYlKqq-111" style="edgeStyle=orthogonalEdgeStyle;rounded=0;orthogonalLoop=1;jettySize=auto;html=1;entryX=0.5;entryY=0;entryDx=0;entryDy=0;" edge="1" parent="WIyWlLk6GJQsqaUBKTNV-1" source="5BbmML6RepyWTEeYlKqq-22" target="5BbmML6RepyWTEeYlKqq-28">
          <mxGeometry relative="1" as="geometry" />
        </mxCell>
        <mxCell id="5BbmML6RepyWTEeYlKqq-22" value="Don’t change the schedule, but run a data movement check." style="rhombus;whiteSpace=wrap;html=1;shadow=0;fontFamily=Helvetica;fontSize=12;align=center;strokeWidth=1;spacing=6;spacingTop=-4;fillColor=#ffe6cc;strokeColor=#d79b00;" vertex="1" parent="WIyWlLk6GJQsqaUBKTNV-1">
          <mxGeometry y="2650" width="100" height="80" as="geometry" />
        </mxCell>
        <mxCell id="5BbmML6RepyWTEeYlKqq-110" style="edgeStyle=orthogonalEdgeStyle;rounded=0;orthogonalLoop=1;jettySize=auto;html=1;entryX=0.5;entryY=0;entryDx=0;entryDy=0;" edge="1" parent="WIyWlLk6GJQsqaUBKTNV-1" source="5BbmML6RepyWTEeYlKqq-23" target="5BbmML6RepyWTEeYlKqq-29">
          <mxGeometry relative="1" as="geometry" />
        </mxCell>
        <mxCell id="5BbmML6RepyWTEeYlKqq-23" value="Engage an external Forensic Investigation." style="rhombus;whiteSpace=wrap;html=1;shadow=0;fontFamily=Helvetica;fontSize=12;align=center;strokeWidth=1;spacing=6;spacingTop=-4;fillColor=#ffe6cc;strokeColor=#d79b00;" vertex="1" parent="WIyWlLk6GJQsqaUBKTNV-1">
          <mxGeometry x="365" y="2660" width="100" height="80" as="geometry" />
        </mxCell>
        <mxCell id="5BbmML6RepyWTEeYlKqq-109" style="edgeStyle=orthogonalEdgeStyle;rounded=0;orthogonalLoop=1;jettySize=auto;html=1;entryX=0.5;entryY=0;entryDx=0;entryDy=0;" edge="1" parent="WIyWlLk6GJQsqaUBKTNV-1" source="5BbmML6RepyWTEeYlKqq-24" target="5BbmML6RepyWTEeYlKqq-27">
          <mxGeometry relative="1" as="geometry" />
        </mxCell>
        <mxCell id="5BbmML6RepyWTEeYlKqq-24" value="Have the Security team check the Breach Detection System logs." style="rhombus;whiteSpace=wrap;html=1;shadow=0;fontFamily=Helvetica;fontSize=12;align=center;strokeWidth=1;spacing=6;spacingTop=-4;fillColor=#d5e8d4;strokeColor=#82b366;" vertex="1" parent="WIyWlLk6GJQsqaUBKTNV-1">
          <mxGeometry x="726" y="2660" width="100" height="80" as="geometry" />
        </mxCell>
        <mxCell id="5BbmML6RepyWTEeYlKqq-118" style="edgeStyle=orthogonalEdgeStyle;rounded=0;orthogonalLoop=1;jettySize=auto;html=1;entryX=0.5;entryY=0;entryDx=0;entryDy=0;" edge="1" parent="WIyWlLk6GJQsqaUBKTNV-1" source="5BbmML6RepyWTEeYlKqq-27" target="5BbmML6RepyWTEeYlKqq-116">
          <mxGeometry relative="1" as="geometry" />
        </mxCell>
        <mxCell id="5BbmML6RepyWTEeYlKqq-27" value="CH4W_C0" style="rounded=1;whiteSpace=wrap;html=1;fontSize=12;glass=0;strokeWidth=1;shadow=0;" vertex="1" parent="WIyWlLk6GJQsqaUBKTNV-1">
          <mxGeometry x="716" y="2830" width="120" height="40" as="geometry" />
        </mxCell>
        <mxCell id="5BbmML6RepyWTEeYlKqq-122" style="edgeStyle=orthogonalEdgeStyle;rounded=0;orthogonalLoop=1;jettySize=auto;html=1;entryX=0.5;entryY=0;entryDx=0;entryDy=0;" edge="1" parent="WIyWlLk6GJQsqaUBKTNV-1" source="5BbmML6RepyWTEeYlKqq-28" target="5BbmML6RepyWTEeYlKqq-117">
          <mxGeometry relative="1" as="geometry">
            <Array as="points">
              <mxPoint x="50" y="3240" />
              <mxPoint x="285" y="3240" />
            </Array>
          </mxGeometry>
        </mxCell>
        <mxCell id="5BbmML6RepyWTEeYlKqq-28" value="CH4_A0" style="rounded=1;whiteSpace=wrap;html=1;fontSize=12;glass=0;strokeWidth=1;shadow=0;" vertex="1" parent="WIyWlLk6GJQsqaUBKTNV-1">
          <mxGeometry x="-10" y="2820" width="120" height="40" as="geometry" />
        </mxCell>
        <mxCell id="5BbmML6RepyWTEeYlKqq-112" style="edgeStyle=orthogonalEdgeStyle;rounded=0;orthogonalLoop=1;jettySize=auto;html=1;entryX=0.5;entryY=0;entryDx=0;entryDy=0;" edge="1" parent="WIyWlLk6GJQsqaUBKTNV-1" source="5BbmML6RepyWTEeYlKqq-29" target="5BbmML6RepyWTEeYlKqq-31">
          <mxGeometry relative="1" as="geometry" />
        </mxCell>
        <mxCell id="5BbmML6RepyWTEeYlKqq-113" style="edgeStyle=orthogonalEdgeStyle;rounded=0;orthogonalLoop=1;jettySize=auto;html=1;entryX=0.5;entryY=0;entryDx=0;entryDy=0;" edge="1" parent="WIyWlLk6GJQsqaUBKTNV-1" source="5BbmML6RepyWTEeYlKqq-29" target="5BbmML6RepyWTEeYlKqq-30">
          <mxGeometry relative="1" as="geometry" />
        </mxCell>
        <mxCell id="5BbmML6RepyWTEeYlKqq-29" value="CH4_B0" style="rounded=1;whiteSpace=wrap;html=1;fontSize=12;glass=0;strokeWidth=1;shadow=0;" vertex="1" parent="WIyWlLk6GJQsqaUBKTNV-1">
          <mxGeometry x="355" y="2830" width="120" height="40" as="geometry" />
        </mxCell>
        <mxCell id="5BbmML6RepyWTEeYlKqq-115" style="edgeStyle=orthogonalEdgeStyle;rounded=0;orthogonalLoop=1;jettySize=auto;html=1;entryX=0.5;entryY=0;entryDx=0;entryDy=0;" edge="1" parent="WIyWlLk6GJQsqaUBKTNV-1" source="5BbmML6RepyWTEeYlKqq-30" target="5BbmML6RepyWTEeYlKqq-33">
          <mxGeometry relative="1" as="geometry" />
        </mxCell>
        <mxCell id="5BbmML6RepyWTEeYlKqq-30" value="Keep the project on schedule no matter what let the PR department deal with it." style="rhombus;whiteSpace=wrap;html=1;shadow=0;fontFamily=Helvetica;fontSize=12;align=center;strokeWidth=1;spacing=6;spacingTop=-4;" vertex="1" parent="WIyWlLk6GJQsqaUBKTNV-1">
          <mxGeometry x="295" y="3000" width="100" height="80" as="geometry" />
        </mxCell>
        <mxCell id="5BbmML6RepyWTEeYlKqq-114" style="edgeStyle=orthogonalEdgeStyle;rounded=0;orthogonalLoop=1;jettySize=auto;html=1;entryX=0.5;entryY=0;entryDx=0;entryDy=0;" edge="1" parent="WIyWlLk6GJQsqaUBKTNV-1" source="5BbmML6RepyWTEeYlKqq-31" target="5BbmML6RepyWTEeYlKqq-34">
          <mxGeometry relative="1" as="geometry" />
        </mxCell>
        <mxCell id="5BbmML6RepyWTEeYlKqq-31" value="Keep the project running, engage external forensics, don’t delay the app launch." style="rhombus;whiteSpace=wrap;html=1;shadow=0;fontFamily=Helvetica;fontSize=12;align=center;strokeWidth=1;spacing=6;spacingTop=-4;" vertex="1" parent="WIyWlLk6GJQsqaUBKTNV-1">
          <mxGeometry x="435" y="3000" width="100" height="80" as="geometry" />
        </mxCell>
        <mxCell id="5BbmML6RepyWTEeYlKqq-119" style="edgeStyle=orthogonalEdgeStyle;rounded=0;orthogonalLoop=1;jettySize=auto;html=1;entryX=0.5;entryY=0;entryDx=0;entryDy=0;" edge="1" parent="WIyWlLk6GJQsqaUBKTNV-1" source="5BbmML6RepyWTEeYlKqq-33" target="5BbmML6RepyWTEeYlKqq-117">
          <mxGeometry relative="1" as="geometry">
            <Array as="points">
              <mxPoint x="345" y="3240" />
              <mxPoint x="285" y="3240" />
            </Array>
          </mxGeometry>
        </mxCell>
        <mxCell id="5BbmML6RepyWTEeYlKqq-33" value="CH4_B1" style="rounded=1;whiteSpace=wrap;html=1;fontSize=12;glass=0;strokeWidth=1;shadow=0;" vertex="1" parent="WIyWlLk6GJQsqaUBKTNV-1">
          <mxGeometry x="285" y="3150" width="120" height="40" as="geometry" />
        </mxCell>
        <mxCell id="5BbmML6RepyWTEeYlKqq-121" style="edgeStyle=orthogonalEdgeStyle;rounded=0;orthogonalLoop=1;jettySize=auto;html=1;entryX=0.5;entryY=0;entryDx=0;entryDy=0;" edge="1" parent="WIyWlLk6GJQsqaUBKTNV-1" source="5BbmML6RepyWTEeYlKqq-34" target="5BbmML6RepyWTEeYlKqq-117">
          <mxGeometry relative="1" as="geometry">
            <Array as="points">
              <mxPoint x="485" y="3240" />
              <mxPoint x="285" y="3240" />
            </Array>
          </mxGeometry>
        </mxCell>
        <mxCell id="5BbmML6RepyWTEeYlKqq-34" value="CH4_B2" style="rounded=1;whiteSpace=wrap;html=1;fontSize=12;glass=0;strokeWidth=1;shadow=0;" vertex="1" parent="WIyWlLk6GJQsqaUBKTNV-1">
          <mxGeometry x="425" y="3150" width="120" height="40" as="geometry" />
        </mxCell>
        <mxCell id="5BbmML6RepyWTEeYlKqq-128" style="edgeStyle=orthogonalEdgeStyle;rounded=0;orthogonalLoop=1;jettySize=auto;html=1;entryX=0.5;entryY=0;entryDx=0;entryDy=0;" edge="1" parent="WIyWlLk6GJQsqaUBKTNV-1" source="5BbmML6RepyWTEeYlKqq-37" target="5BbmML6RepyWTEeYlKqq-40">
          <mxGeometry relative="1" as="geometry" />
        </mxCell>
        <mxCell id="5BbmML6RepyWTEeYlKqq-37" value="Shut the servers down! We can’t afford any more data to leak out of the company!" style="rhombus;whiteSpace=wrap;html=1;shadow=0;fontFamily=Helvetica;fontSize=12;align=center;strokeWidth=1;spacing=6;spacingTop=-4;fillColor=#f8cecc;strokeColor=#b85450;" vertex="1" parent="WIyWlLk6GJQsqaUBKTNV-1">
          <mxGeometry x="10" y="3400" width="100" height="80" as="geometry" />
        </mxCell>
        <mxCell id="5BbmML6RepyWTEeYlKqq-126" style="edgeStyle=orthogonalEdgeStyle;rounded=0;orthogonalLoop=1;jettySize=auto;html=1;entryX=0.5;entryY=0;entryDx=0;entryDy=0;" edge="1" parent="WIyWlLk6GJQsqaUBKTNV-1" source="5BbmML6RepyWTEeYlKqq-38" target="5BbmML6RepyWTEeYlKqq-41">
          <mxGeometry relative="1" as="geometry" />
        </mxCell>
        <mxCell id="5BbmML6RepyWTEeYlKqq-38" value="Pull out the network cables and call the police!" style="rhombus;whiteSpace=wrap;html=1;shadow=0;fontFamily=Helvetica;fontSize=12;align=center;strokeWidth=1;spacing=6;spacingTop=-4;fillColor=#f8cecc;strokeColor=#b85450;" vertex="1" parent="WIyWlLk6GJQsqaUBKTNV-1">
          <mxGeometry x="234" y="3400" width="100" height="80" as="geometry" />
        </mxCell>
        <mxCell id="5BbmML6RepyWTEeYlKqq-127" style="edgeStyle=orthogonalEdgeStyle;rounded=0;orthogonalLoop=1;jettySize=auto;html=1;entryX=0.5;entryY=0;entryDx=0;entryDy=0;" edge="1" parent="WIyWlLk6GJQsqaUBKTNV-1" source="5BbmML6RepyWTEeYlKqq-39" target="5BbmML6RepyWTEeYlKqq-42">
          <mxGeometry relative="1" as="geometry" />
        </mxCell>
        <mxCell id="5BbmML6RepyWTEeYlKqq-39" value="It’s probably just another bluff - Don’t worry about it." style="rhombus;whiteSpace=wrap;html=1;shadow=0;fontFamily=Helvetica;fontSize=12;align=center;strokeWidth=1;spacing=6;spacingTop=-4;fillColor=#f8cecc;strokeColor=#b85450;" vertex="1" parent="WIyWlLk6GJQsqaUBKTNV-1">
          <mxGeometry x="460" y="3400" width="100" height="80" as="geometry" />
        </mxCell>
        <mxCell id="5BbmML6RepyWTEeYlKqq-135" style="edgeStyle=orthogonalEdgeStyle;rounded=0;orthogonalLoop=1;jettySize=auto;html=1;entryX=0.5;entryY=0;entryDx=0;entryDy=0;" edge="1" parent="WIyWlLk6GJQsqaUBKTNV-1" source="5BbmML6RepyWTEeYlKqq-40" target="5BbmML6RepyWTEeYlKqq-43">
          <mxGeometry relative="1" as="geometry" />
        </mxCell>
        <mxCell id="5BbmML6RepyWTEeYlKqq-136" style="edgeStyle=orthogonalEdgeStyle;rounded=0;orthogonalLoop=1;jettySize=auto;html=1;entryX=0.5;entryY=0;entryDx=0;entryDy=0;" edge="1" parent="WIyWlLk6GJQsqaUBKTNV-1" source="5BbmML6RepyWTEeYlKqq-40" target="5BbmML6RepyWTEeYlKqq-44">
          <mxGeometry relative="1" as="geometry" />
        </mxCell>
        <mxCell id="5BbmML6RepyWTEeYlKqq-40" value="CH5_A0" style="rounded=1;whiteSpace=wrap;html=1;fontSize=12;glass=0;strokeWidth=1;shadow=0;" vertex="1" parent="WIyWlLk6GJQsqaUBKTNV-1">
          <mxGeometry y="3507" width="120" height="40" as="geometry" />
        </mxCell>
        <mxCell id="5BbmML6RepyWTEeYlKqq-139" style="edgeStyle=orthogonalEdgeStyle;rounded=0;orthogonalLoop=1;jettySize=auto;html=1;entryX=0.5;entryY=0;entryDx=0;entryDy=0;" edge="1" parent="WIyWlLk6GJQsqaUBKTNV-1" source="5BbmML6RepyWTEeYlKqq-41" target="5BbmML6RepyWTEeYlKqq-48">
          <mxGeometry relative="1" as="geometry" />
        </mxCell>
        <mxCell id="5BbmML6RepyWTEeYlKqq-41" value="CH5_B0" style="rounded=1;whiteSpace=wrap;html=1;fontSize=12;glass=0;strokeWidth=1;shadow=0;" vertex="1" parent="WIyWlLk6GJQsqaUBKTNV-1">
          <mxGeometry x="224.5" y="3507" width="120" height="40" as="geometry" />
        </mxCell>
        <mxCell id="5BbmML6RepyWTEeYlKqq-142" style="edgeStyle=orthogonalEdgeStyle;rounded=0;orthogonalLoop=1;jettySize=auto;html=1;entryX=0.5;entryY=0;entryDx=0;entryDy=0;" edge="1" parent="WIyWlLk6GJQsqaUBKTNV-1" source="5BbmML6RepyWTEeYlKqq-42" target="5BbmML6RepyWTEeYlKqq-48">
          <mxGeometry relative="1" as="geometry">
            <Array as="points">
              <mxPoint x="510" y="3840" />
              <mxPoint x="285" y="3840" />
            </Array>
          </mxGeometry>
        </mxCell>
        <mxCell id="5BbmML6RepyWTEeYlKqq-42" value="CH5_C0" style="rounded=1;whiteSpace=wrap;html=1;fontSize=12;glass=0;strokeWidth=1;shadow=0;" vertex="1" parent="WIyWlLk6GJQsqaUBKTNV-1">
          <mxGeometry x="450" y="3507" width="120" height="40" as="geometry" />
        </mxCell>
        <mxCell id="5BbmML6RepyWTEeYlKqq-132" style="edgeStyle=orthogonalEdgeStyle;rounded=0;orthogonalLoop=1;jettySize=auto;html=1;entryX=0.5;entryY=0;entryDx=0;entryDy=0;" edge="1" parent="WIyWlLk6GJQsqaUBKTNV-1" source="5BbmML6RepyWTEeYlKqq-43" target="5BbmML6RepyWTEeYlKqq-45">
          <mxGeometry relative="1" as="geometry" />
        </mxCell>
        <mxCell id="5BbmML6RepyWTEeYlKqq-43" value="Call IT to not shut the servers down, just isolate them." style="rhombus;whiteSpace=wrap;html=1;shadow=0;fontFamily=Helvetica;fontSize=12;align=center;strokeWidth=1;spacing=6;spacingTop=-4;" vertex="1" parent="WIyWlLk6GJQsqaUBKTNV-1">
          <mxGeometry x="-70" y="3610" width="100" height="80" as="geometry" />
        </mxCell>
        <mxCell id="5BbmML6RepyWTEeYlKqq-131" style="edgeStyle=orthogonalEdgeStyle;rounded=0;orthogonalLoop=1;jettySize=auto;html=1;entryX=0.5;entryY=0;entryDx=0;entryDy=0;" edge="1" parent="WIyWlLk6GJQsqaUBKTNV-1" source="5BbmML6RepyWTEeYlKqq-44" target="5BbmML6RepyWTEeYlKqq-46">
          <mxGeometry relative="1" as="geometry" />
        </mxCell>
        <mxCell id="5BbmML6RepyWTEeYlKqq-44" value="I will make sure those servers get shut down!" style="rhombus;whiteSpace=wrap;html=1;shadow=0;fontFamily=Helvetica;fontSize=12;align=center;strokeWidth=1;spacing=6;spacingTop=-4;" vertex="1" parent="WIyWlLk6GJQsqaUBKTNV-1">
          <mxGeometry x="70" y="3610" width="100" height="80" as="geometry" />
        </mxCell>
        <mxCell id="5BbmML6RepyWTEeYlKqq-141" style="edgeStyle=orthogonalEdgeStyle;rounded=0;orthogonalLoop=1;jettySize=auto;html=1;entryX=0.5;entryY=0;entryDx=0;entryDy=0;" edge="1" parent="WIyWlLk6GJQsqaUBKTNV-1" source="5BbmML6RepyWTEeYlKqq-45" target="5BbmML6RepyWTEeYlKqq-48">
          <mxGeometry relative="1" as="geometry">
            <Array as="points">
              <mxPoint x="-20" y="3840" />
              <mxPoint x="285" y="3840" />
            </Array>
          </mxGeometry>
        </mxCell>
        <mxCell id="5BbmML6RepyWTEeYlKqq-45" value="CH5_A1" style="rounded=1;whiteSpace=wrap;html=1;fontSize=12;glass=0;strokeWidth=1;shadow=0;" vertex="1" parent="WIyWlLk6GJQsqaUBKTNV-1">
          <mxGeometry x="-80" y="3740" width="120" height="40" as="geometry" />
        </mxCell>
        <mxCell id="5BbmML6RepyWTEeYlKqq-140" style="edgeStyle=orthogonalEdgeStyle;rounded=0;orthogonalLoop=1;jettySize=auto;html=1;entryX=0.5;entryY=0;entryDx=0;entryDy=0;" edge="1" parent="WIyWlLk6GJQsqaUBKTNV-1" source="5BbmML6RepyWTEeYlKqq-46" target="5BbmML6RepyWTEeYlKqq-48">
          <mxGeometry relative="1" as="geometry">
            <Array as="points">
              <mxPoint x="120" y="3840" />
              <mxPoint x="285" y="3840" />
            </Array>
          </mxGeometry>
        </mxCell>
        <mxCell id="5BbmML6RepyWTEeYlKqq-46" value="CH5_A2" style="rounded=1;whiteSpace=wrap;html=1;fontSize=12;glass=0;strokeWidth=1;shadow=0;" vertex="1" parent="WIyWlLk6GJQsqaUBKTNV-1">
          <mxGeometry x="60" y="3740" width="120" height="40" as="geometry" />
        </mxCell>
        <mxCell id="5BbmML6RepyWTEeYlKqq-48" value="RIK1" style="rounded=1;whiteSpace=wrap;html=1;fontSize=12;glass=0;strokeWidth=1;shadow=0;" vertex="1" parent="WIyWlLk6GJQsqaUBKTNV-1">
          <mxGeometry x="224.5" y="3920" width="120" height="40" as="geometry" />
        </mxCell>
        <mxCell id="5BbmML6RepyWTEeYlKqq-49" value="RIK2_1&lt;br&gt;Segment Network" style="rounded=1;whiteSpace=wrap;html=1;fontSize=12;glass=0;strokeWidth=1;shadow=0;fillColor=#dae8fc;strokeColor=#6c8ebf;" vertex="1" parent="WIyWlLk6GJQsqaUBKTNV-1">
          <mxGeometry x="10" y="4010" width="120" height="40" as="geometry" />
        </mxCell>
        <mxCell id="5BbmML6RepyWTEeYlKqq-50" value="RIK2_2&lt;br&gt;2FA" style="rounded=1;whiteSpace=wrap;html=1;fontSize=12;glass=0;strokeWidth=1;shadow=0;fillColor=#dae8fc;strokeColor=#6c8ebf;" vertex="1" parent="WIyWlLk6GJQsqaUBKTNV-1">
          <mxGeometry x="224" y="4010" width="120" height="40" as="geometry" />
        </mxCell>
        <mxCell id="5BbmML6RepyWTEeYlKqq-51" value="RIK2_3&lt;br&gt;Active Directory" style="rounded=1;whiteSpace=wrap;html=1;fontSize=12;glass=0;strokeWidth=1;shadow=0;fillColor=#dae8fc;strokeColor=#6c8ebf;" vertex="1" parent="WIyWlLk6GJQsqaUBKTNV-1">
          <mxGeometry x="435" y="4010" width="120" height="40" as="geometry" />
        </mxCell>
        <mxCell id="5BbmML6RepyWTEeYlKqq-52" value="RIK3" style="rounded=1;whiteSpace=wrap;html=1;fontSize=12;glass=0;strokeWidth=1;shadow=0;" vertex="1" parent="WIyWlLk6GJQsqaUBKTNV-1">
          <mxGeometry x="224" y="4100" width="120" height="40" as="geometry" />
        </mxCell>
        <mxCell id="5BbmML6RepyWTEeYlKqq-53" value="RIK4_1&lt;br&gt;DLP" style="rounded=1;whiteSpace=wrap;html=1;fontSize=12;glass=0;strokeWidth=1;shadow=0;fillColor=#ffe6cc;strokeColor=#d79b00;" vertex="1" parent="WIyWlLk6GJQsqaUBKTNV-1">
          <mxGeometry x="100" y="4190" width="120" height="40" as="geometry" />
        </mxCell>
        <mxCell id="5BbmML6RepyWTEeYlKqq-54" value="RIK4_2&lt;br&gt;DF Investigation" style="rounded=1;whiteSpace=wrap;html=1;fontSize=12;glass=0;strokeWidth=1;shadow=0;fillColor=#ffe6cc;strokeColor=#d79b00;" vertex="1" parent="WIyWlLk6GJQsqaUBKTNV-1">
          <mxGeometry x="364" y="4190" width="120" height="40" as="geometry" />
        </mxCell>
        <mxCell id="5BbmML6RepyWTEeYlKqq-56" value="RIK6_1&lt;br&gt;Shutdown Server" style="rounded=1;whiteSpace=wrap;html=1;fontSize=12;glass=0;strokeWidth=1;shadow=0;fillColor=#f8cecc;strokeColor=#b85450;" vertex="1" parent="WIyWlLk6GJQsqaUBKTNV-1">
          <mxGeometry x="4.5" y="4300" width="120" height="40" as="geometry" />
        </mxCell>
        <mxCell id="5BbmML6RepyWTEeYlKqq-58" value="RIK6_3&lt;br&gt;Isolate Server" style="rounded=1;whiteSpace=wrap;html=1;fontSize=12;glass=0;strokeWidth=1;shadow=0;fillColor=#f8cecc;strokeColor=#b85450;" vertex="1" parent="WIyWlLk6GJQsqaUBKTNV-1">
          <mxGeometry x="435" y="4300" width="120" height="40" as="geometry" />
        </mxCell>
        <mxCell id="5BbmML6RepyWTEeYlKqq-59" value="RIK7" style="rounded=1;whiteSpace=wrap;html=1;fontSize=12;glass=0;strokeWidth=1;shadow=0;" vertex="1" parent="WIyWlLk6GJQsqaUBKTNV-1">
          <mxGeometry x="224" y="4380" width="120" height="40" as="geometry" />
        </mxCell>
        <mxCell id="5BbmML6RepyWTEeYlKqq-106" style="edgeStyle=orthogonalEdgeStyle;rounded=0;orthogonalLoop=1;jettySize=auto;html=1;entryX=0.5;entryY=0;entryDx=0;entryDy=0;" edge="1" parent="WIyWlLk6GJQsqaUBKTNV-1" source="5BbmML6RepyWTEeYlKqq-91" target="5BbmML6RepyWTEeYlKqq-23">
          <mxGeometry relative="1" as="geometry" />
        </mxCell>
        <mxCell id="5BbmML6RepyWTEeYlKqq-107" style="edgeStyle=orthogonalEdgeStyle;rounded=0;orthogonalLoop=1;jettySize=auto;html=1;entryX=0.5;entryY=0;entryDx=0;entryDy=0;dashed=1;" edge="1" parent="WIyWlLk6GJQsqaUBKTNV-1" source="5BbmML6RepyWTEeYlKqq-91" target="5BbmML6RepyWTEeYlKqq-24">
          <mxGeometry relative="1" as="geometry" />
        </mxCell>
        <mxCell id="5BbmML6RepyWTEeYlKqq-108" style="edgeStyle=orthogonalEdgeStyle;rounded=0;orthogonalLoop=1;jettySize=auto;html=1;entryX=0.5;entryY=0;entryDx=0;entryDy=0;" edge="1" parent="WIyWlLk6GJQsqaUBKTNV-1" source="5BbmML6RepyWTEeYlKqq-91" target="5BbmML6RepyWTEeYlKqq-22">
          <mxGeometry relative="1" as="geometry" />
        </mxCell>
        <mxCell id="5BbmML6RepyWTEeYlKqq-91" value="CH4_INTRO / CH4_INTRO_W&lt;br&gt;&amp;nbsp;(If picked &quot;Invest in Breach Detection technology.&quot;, CH4_INTRO_W &amp;amp; have 3rd option)" style="rounded=1;whiteSpace=wrap;html=1;fontSize=12;glass=0;strokeWidth=1;shadow=0;" vertex="1" parent="WIyWlLk6GJQsqaUBKTNV-1">
          <mxGeometry y="2560" width="830" height="40" as="geometry" />
        </mxCell>
        <mxCell id="5BbmML6RepyWTEeYlKqq-116" value="CH5_ALT" style="rounded=1;whiteSpace=wrap;html=1;fontSize=12;glass=0;strokeWidth=1;shadow=0;fillColor=#d5e8d4;strokeColor=#82b366;" vertex="1" parent="WIyWlLk6GJQsqaUBKTNV-1">
          <mxGeometry x="716" y="3300" width="120" height="40" as="geometry" />
        </mxCell>
        <mxCell id="5BbmML6RepyWTEeYlKqq-123" style="edgeStyle=orthogonalEdgeStyle;rounded=0;orthogonalLoop=1;jettySize=auto;html=1;entryX=0.5;entryY=0;entryDx=0;entryDy=0;" edge="1" parent="WIyWlLk6GJQsqaUBKTNV-1" source="5BbmML6RepyWTEeYlKqq-117" target="5BbmML6RepyWTEeYlKqq-38">
          <mxGeometry relative="1" as="geometry" />
        </mxCell>
        <mxCell id="5BbmML6RepyWTEeYlKqq-124" style="edgeStyle=orthogonalEdgeStyle;rounded=0;orthogonalLoop=1;jettySize=auto;html=1;entryX=0.5;entryY=0;entryDx=0;entryDy=0;" edge="1" parent="WIyWlLk6GJQsqaUBKTNV-1" source="5BbmML6RepyWTEeYlKqq-117" target="5BbmML6RepyWTEeYlKqq-39">
          <mxGeometry relative="1" as="geometry" />
        </mxCell>
        <mxCell id="5BbmML6RepyWTEeYlKqq-125" style="edgeStyle=orthogonalEdgeStyle;rounded=0;orthogonalLoop=1;jettySize=auto;html=1;entryX=0.5;entryY=0;entryDx=0;entryDy=0;" edge="1" parent="WIyWlLk6GJQsqaUBKTNV-1" source="5BbmML6RepyWTEeYlKqq-117" target="5BbmML6RepyWTEeYlKqq-37">
          <mxGeometry relative="1" as="geometry" />
        </mxCell>
        <mxCell id="5BbmML6RepyWTEeYlKqq-117" value="CH5_INTRO (Fail Route)" style="rounded=1;whiteSpace=wrap;html=1;fontSize=12;glass=0;strokeWidth=1;shadow=0;" vertex="1" parent="WIyWlLk6GJQsqaUBKTNV-1">
          <mxGeometry x="-1" y="3300" width="571" height="40" as="geometry" />
        </mxCell>
        <mxCell id="5BbmML6RepyWTEeYlKqq-134" value="&lt;div style=&quot;text-align: left;&quot;&gt;&lt;span style=&quot;background-color: initial;&quot;&gt;Win Conditions:&lt;/span&gt;&lt;/div&gt;&lt;div style=&quot;text-align: left;&quot;&gt;&lt;span style=&quot;background-color: initial;&quot;&gt;&lt;br&gt;&lt;/span&gt;&lt;/div&gt;&lt;div style=&quot;text-align: left;&quot;&gt;&lt;span style=&quot;background-color: initial;&quot;&gt;Chapter 2&lt;/span&gt;&lt;/div&gt;&lt;div style=&quot;&quot;&gt;&lt;span style=&quot;background-color: initial;&quot;&gt;&lt;div style=&quot;text-align: left;&quot;&gt;Invest in Breach Detection technology. - 2&lt;/div&gt;&lt;div style=&quot;text-align: left;&quot;&gt;&lt;br&gt;&lt;/div&gt;&lt;div style=&quot;text-align: left;&quot;&gt;Chapter 4&lt;/div&gt;&lt;div style=&quot;text-align: left;&quot;&gt;Have the Security team check the Breach Detection System logs.&lt;br&gt;&lt;/div&gt;&lt;/span&gt;&lt;/div&gt;" style="rounded=1;whiteSpace=wrap;html=1;fontSize=12;glass=0;strokeWidth=1;shadow=0;" vertex="1" parent="WIyWlLk6GJQsqaUBKTNV-1">
          <mxGeometry x="840" y="4010" width="420" height="220" as="geometry" />
        </mxCell>
        <mxCell id="5BbmML6RepyWTEeYlKqq-144" value="RIK6_2&lt;br&gt;Sleep" style="rounded=1;whiteSpace=wrap;html=1;fontSize=12;glass=0;strokeWidth=1;shadow=0;fillColor=#f8cecc;strokeColor=#b85450;" vertex="1" parent="WIyWlLk6GJQsqaUBKTNV-1">
          <mxGeometry x="220" y="4300" width="120" height="40" as="geometry" />
        </mxCell>
      </root>
    </mxGraphModel>
  </diagram>
</mxfile>
